<svg width="1745" height="1172" viewBox="0 0 1745 1172" fill="none" xmlns="http://www.w3.org/2000/svg">
<rect width="1745" height="1172" rx="15" fill="#FAF9F5"/>
<g filter="url(#filter0_i_111_204)">
<g filter="url(#filter1_d_111_204)">
<rect x="696" y="873" width="355" height="103" rx="15" fill="#F0EEE6"/>
</g>
<path d="M793.313 937.54C791.633 937.54 790.013 937.252 788.453 936.676C786.893 936.1 785.501 935.284 784.277 934.228C783.053 933.148 782.081 931.864 781.361 930.376C780.665 928.864 780.317 927.196 780.317 925.372C780.317 923.62 780.689 922 781.433 920.512C782.177 919.024 783.197 917.728 784.493 916.624C785.789 915.52 787.265 914.668 788.921 914.068C790.601 913.444 792.365 913.132 794.213 913.132C795.149 913.132 795.941 913.168 796.589 913.24C797.237 913.312 797.861 913.42 798.461 913.564C799.085 913.684 799.805 913.852 800.621 914.068C800.981 914.164 801.233 914.308 801.377 914.5C801.545 914.692 801.641 914.956 801.665 915.292C801.713 915.844 801.773 916.444 801.845 917.092C801.917 917.716 801.965 918.496 801.989 919.432C802.013 919.6 801.929 919.744 801.737 919.864C801.569 919.96 801.377 919.984 801.161 919.936C800.969 919.888 800.837 919.732 800.765 919.468C800.525 918.556 800.249 917.776 799.937 917.128C799.625 916.456 799.157 915.904 798.533 915.472C797.933 915.064 797.201 914.764 796.337 914.572C795.497 914.356 794.585 914.248 793.601 914.248C792.209 914.248 790.913 914.536 789.713 915.112C788.537 915.664 787.517 916.432 786.653 917.416C785.813 918.376 785.153 919.468 784.673 920.692C784.193 921.916 783.953 923.188 783.953 924.508C783.953 925.972 784.181 927.412 784.637 928.828C785.117 930.244 785.789 931.528 786.653 932.68C787.541 933.808 788.585 934.72 789.785 935.416C791.009 936.088 792.365 936.424 793.853 936.424C795.581 936.424 797.009 936.028 798.137 935.236C799.265 934.444 800.225 933.34 801.017 931.924C801.185 931.612 801.425 931.456 801.737 931.456C802.073 931.456 802.241 931.648 802.241 932.032C802.241 932.224 802.193 932.536 802.097 932.968C802.001 933.376 801.869 933.82 801.701 934.3C801.557 934.756 801.413 935.164 801.269 935.524C801.101 935.86 800.957 936.076 800.837 936.172C800.741 936.268 800.501 936.376 800.117 936.496C799.229 936.856 798.161 937.12 796.913 937.288C795.689 937.456 794.489 937.54 793.313 937.54ZM813.364 937.504C812.02 937.504 810.808 937.192 809.728 936.568C808.648 935.944 807.784 935.092 807.136 934.012C806.512 932.908 806.2 931.66 806.2 930.268C806.2 929.26 806.392 928.276 806.776 927.316C807.184 926.356 807.748 925.48 808.468 924.688C809.188 923.896 810.028 923.272 810.988 922.816C811.948 922.336 812.98 922.096 814.084 922.096C815.476 922.096 816.724 922.432 817.828 923.104C818.956 923.776 819.844 924.664 820.492 925.768C821.164 926.848 821.5 928.036 821.5 929.332C821.5 930.724 821.188 932.044 820.564 933.292C819.964 934.54 819.064 935.56 817.864 936.352C816.664 937.12 815.164 937.504 813.364 937.504ZM814.12 936.424C814.936 936.424 815.668 936.268 816.316 935.956C816.964 935.644 817.468 935.14 817.828 934.444C818.116 933.892 818.308 933.22 818.404 932.428C818.5 931.636 818.548 930.892 818.548 930.196C818.548 929.044 818.332 927.94 817.9 926.884C817.492 925.804 816.904 924.928 816.136 924.256C815.392 923.56 814.504 923.212 813.472 923.212C812.824 923.212 812.236 923.32 811.708 923.536C811.204 923.728 810.736 924.1 810.304 924.652C809.824 925.252 809.512 925.984 809.368 926.848C809.224 927.712 809.152 928.576 809.152 929.44C809.152 930.616 809.368 931.744 809.8 932.824C810.232 933.88 810.82 934.744 811.564 935.416C812.308 936.088 813.16 936.424 814.12 936.424ZM825.068 937.108C824.852 937.108 824.672 937.072 824.528 937C824.408 936.952 824.348 936.856 824.348 936.712C824.348 936.52 824.42 936.4 824.564 936.352C824.708 936.28 824.912 936.208 825.176 936.136C825.536 936.04 825.884 935.908 826.22 935.74C826.556 935.572 826.724 935.248 826.724 934.768V927.028C826.724 926.38 826.652 925.828 826.508 925.372C826.388 924.916 826.016 924.604 825.392 924.436C825.296 924.388 825.212 924.34 825.14 924.292C825.068 924.22 825.032 924.112 825.032 923.968C825.032 923.704 825.14 923.56 825.356 923.536C826.196 923.32 826.88 923.056 827.408 922.744C827.936 922.432 828.452 922.084 828.956 921.7C829.028 921.652 829.088 921.616 829.136 921.592C829.208 921.544 829.28 921.52 829.352 921.52C829.4 921.52 829.436 921.544 829.46 921.592C829.508 921.64 829.532 921.7 829.532 921.772C829.532 921.94 829.496 922.288 829.424 922.816C829.376 923.32 829.352 923.74 829.352 924.076C829.352 924.172 829.352 924.268 829.352 924.364C829.376 924.436 829.4 924.484 829.424 924.508C830.264 923.716 831.152 923.116 832.088 922.708C833.048 922.3 834.092 922.096 835.22 922.096C836.396 922.096 837.368 922.576 838.136 923.536C838.904 924.496 839.288 925.684 839.288 927.1V934.768C839.288 935.248 839.456 935.572 839.792 935.74C840.128 935.884 840.476 936.016 840.836 936.136C841.028 936.208 841.208 936.292 841.376 936.388C841.568 936.46 841.664 936.592 841.664 936.784C841.664 936.928 841.58 937.012 841.412 937.036C841.244 937.084 841.088 937.108 840.944 937.108C840.464 937.108 840.092 937.084 839.828 937.036C839.564 937.012 839.312 936.988 839.072 936.964C838.832 936.94 838.496 936.928 838.064 936.928C837.656 936.928 837.32 936.94 837.056 936.964C836.792 936.988 836.516 937.012 836.228 937.036C835.964 937.084 835.592 937.108 835.112 937.108C834.992 937.108 834.836 937.084 834.644 937.036C834.476 937.012 834.392 936.928 834.392 936.784C834.392 936.592 834.476 936.46 834.644 936.388C834.836 936.292 835.028 936.208 835.22 936.136C835.58 936.016 835.928 935.884 836.264 935.74C836.6 935.572 836.768 935.248 836.768 934.768V927.208C836.768 926.152 836.468 925.336 835.868 924.76C835.292 924.16 834.512 923.848 833.528 923.824C832.664 923.824 831.908 923.968 831.26 924.256C830.612 924.52 830.036 924.856 829.532 925.264C829.436 925.36 829.364 925.492 829.316 925.66C829.268 925.804 829.244 925.948 829.244 926.092V934.768C829.244 935.248 829.412 935.572 829.748 935.74C830.084 935.908 830.432 936.04 830.792 936.136C831.344 936.28 831.62 936.472 831.62 936.712C831.62 936.856 831.56 936.952 831.44 937C831.32 937.072 831.14 937.108 830.9 937.108C830.42 937.108 830.036 937.084 829.748 937.036C829.484 937.012 829.232 936.988 828.992 936.964C828.752 936.94 828.416 936.928 827.984 936.928C827.576 936.928 827.24 936.94 826.976 936.964C826.736 936.988 826.472 937.012 826.184 937.036C825.92 937.084 825.548 937.108 825.068 937.108ZM844.807 937.108C844.687 937.108 844.531 937.084 844.339 937.036C844.171 937.012 844.087 936.928 844.087 936.784C844.087 936.592 844.171 936.46 844.339 936.388C844.531 936.292 844.723 936.208 844.915 936.136C845.275 936.016 845.623 935.86 845.959 935.668C846.295 935.452 846.463 935.08 846.463 934.552V924.4C846.223 924.4 845.947 924.4 845.635 924.4C845.323 924.4 844.975 924.376 844.591 924.328C844.495 924.304 844.399 924.232 844.303 924.112C844.231 923.992 844.195 923.848 844.195 923.68C844.195 923.512 844.327 923.392 844.591 923.32C845.023 923.2 845.359 923.08 845.599 922.96C845.863 922.816 846.151 922.672 846.463 922.528C846.463 920.368 846.763 918.58 847.363 917.164C847.963 915.748 848.719 914.632 849.631 913.816C850.567 913 851.527 912.424 852.511 912.088C853.495 911.752 854.383 911.584 855.175 911.584C855.895 911.584 856.615 911.656 857.335 911.8C858.055 911.944 858.655 912.184 859.135 912.52C859.615 912.856 859.855 913.324 859.855 913.924C859.855 914.596 859.663 915.076 859.279 915.364C858.919 915.652 858.511 915.796 858.055 915.796C857.743 915.796 857.491 915.688 857.299 915.472C857.107 915.232 856.891 914.968 856.651 914.68C856.363 914.296 855.991 913.924 855.535 913.564C855.079 913.204 854.431 913.024 853.591 913.024C852.823 913.024 852.079 913.264 851.359 913.744C850.663 914.2 850.087 914.932 849.631 915.94C849.199 916.948 848.983 918.268 848.983 919.9V921.88C848.983 922.168 849.067 922.348 849.235 922.42C849.427 922.492 849.643 922.552 849.883 922.6C850.555 922.672 851.251 922.732 851.971 922.78C852.715 922.828 853.423 922.852 854.095 922.852C854.743 922.852 855.307 922.828 855.787 922.78C856.267 922.732 856.591 922.672 856.759 922.6C857.095 922.408 857.419 922.216 857.731 922.024C858.043 921.808 858.355 921.604 858.667 921.412C858.763 921.364 858.859 921.352 858.955 921.376C859.051 921.4 859.099 921.46 859.099 921.556C859.075 921.964 859.015 922.6 858.919 923.464C858.847 924.328 858.811 925.54 858.811 927.1V934.552C858.811 935.08 858.979 935.452 859.315 935.668C859.651 935.86 859.999 936.016 860.359 936.136C860.551 936.208 860.731 936.292 860.899 936.388C861.091 936.46 861.187 936.592 861.187 936.784C861.187 936.928 861.091 937.012 860.899 937.036C860.731 937.084 860.587 937.108 860.467 937.108C859.987 937.108 859.603 937.084 859.315 937.036C859.051 937.012 858.799 936.988 858.559 936.964C858.319 936.94 857.983 936.928 857.551 936.928C857.143 936.928 856.807 936.94 856.543 936.964C856.303 936.988 856.039 937.012 855.751 937.036C855.487 937.084 855.115 937.108 854.635 937.108C854.515 937.108 854.359 937.084 854.167 937.036C853.999 937.012 853.915 936.928 853.915 936.784C853.915 936.592 853.999 936.46 854.167 936.388C854.359 936.292 854.551 936.208 854.743 936.136C855.103 936.016 855.451 935.86 855.787 935.668C856.123 935.452 856.291 935.08 856.291 934.552V926.956C856.291 926.284 856.159 925.708 855.895 925.228C855.631 924.748 855.187 924.448 854.563 924.328C854.515 924.304 854.299 924.292 853.915 924.292C853.555 924.292 853.123 924.292 852.619 924.292C852.259 924.292 851.887 924.292 851.503 924.292C851.119 924.292 850.759 924.304 850.423 924.328C849.727 924.352 849.307 924.424 849.163 924.544C849.043 924.664 848.983 924.832 848.983 925.048V934.552C848.983 935.08 849.151 935.452 849.487 935.668C849.823 935.86 850.171 936.016 850.531 936.136C850.723 936.208 850.903 936.292 851.071 936.388C851.263 936.46 851.359 936.592 851.359 936.784C851.359 936.928 851.263 937.012 851.071 937.036C850.903 937.084 850.759 937.108 850.639 937.108C850.159 937.108 849.775 937.084 849.487 937.036C849.223 937.012 848.971 936.988 848.731 936.964C848.491 936.94 848.155 936.928 847.723 936.928C847.315 936.928 846.979 936.94 846.715 936.964C846.475 936.988 846.211 937.012 845.923 937.036C845.659 937.084 845.287 937.108 844.807 937.108ZM864.34 937.108C864.1 937.108 863.92 937.072 863.8 937C863.68 936.952 863.62 936.856 863.62 936.712C863.62 936.52 863.692 936.4 863.836 936.352C863.98 936.28 864.184 936.208 864.448 936.136C864.904 936.016 865.24 935.848 865.456 935.632C865.696 935.392 865.816 935.104 865.816 934.768V927.028C865.816 926.38 865.72 925.816 865.528 925.336C865.336 924.856 864.94 924.556 864.34 924.436C864.244 924.412 864.16 924.352 864.088 924.256C864.016 924.16 863.98 924.064 863.98 923.968C863.98 923.728 864.088 923.584 864.304 923.536C864.928 923.344 865.576 923.068 866.248 922.708C866.944 922.324 867.484 922.012 867.868 921.772C868.012 921.676 868.12 921.616 868.192 921.592C868.288 921.544 868.36 921.52 868.408 921.52C868.528 921.52 868.588 921.604 868.588 921.772C868.588 921.844 868.576 922.024 868.552 922.312C868.552 922.6 868.54 922.936 868.516 923.32C868.516 923.704 868.504 924.088 868.48 924.472C868.48 924.52 868.504 924.544 868.552 924.544C868.936 924.064 869.356 923.644 869.812 923.284C870.292 922.924 870.772 922.636 871.252 922.42C871.756 922.204 872.236 922.096 872.692 922.096C873.196 922.096 873.604 922.204 873.916 922.42C874.252 922.636 874.42 922.912 874.42 923.248C874.42 923.488 874.348 923.752 874.204 924.04C874.084 924.328 873.916 924.58 873.7 924.796C873.484 925.012 873.256 925.12 873.016 925.12C872.872 925.12 872.716 925.096 872.548 925.048C872.38 924.976 872.2 924.892 872.008 924.796C871.816 924.724 871.624 924.652 871.432 924.58C871.24 924.508 871.048 924.472 870.856 924.472C870.28 924.472 869.716 924.676 869.164 925.084C868.636 925.492 868.372 926.296 868.372 927.496V934.768C868.372 935.08 868.54 935.344 868.876 935.56C869.212 935.752 869.68 935.944 870.28 936.136C870.544 936.208 870.748 936.28 870.892 936.352C871.036 936.424 871.108 936.544 871.108 936.712C871.108 936.976 870.868 937.108 870.388 937.108C869.668 937.108 869.116 937.072 868.732 937C868.372 936.952 867.88 936.928 867.256 936.928C866.848 936.928 866.512 936.94 866.248 936.964C866.008 936.988 865.744 937.012 865.456 937.036C865.192 937.084 864.82 937.108 864.34 937.108ZM876.904 937.108C876.712 937.108 876.544 937.084 876.4 937.036C876.256 936.988 876.184 936.88 876.184 936.712C876.184 936.544 876.256 936.424 876.4 936.352C876.568 936.28 876.772 936.208 877.012 936.136C877.348 936.016 877.684 935.884 878.02 935.74C878.38 935.572 878.56 935.248 878.56 934.768V927.028C878.56 926.38 878.488 925.816 878.344 925.336C878.2 924.832 877.816 924.532 877.192 924.436C877.096 924.412 877.012 924.364 876.94 924.292C876.892 924.22 876.868 924.112 876.868 923.968C876.868 923.728 876.964 923.584 877.156 923.536C877.804 923.368 878.32 923.2 878.704 923.032C879.088 922.84 879.424 922.636 879.712 922.42C880.024 922.18 880.396 921.928 880.828 921.664C880.876 921.64 880.924 921.616 880.972 921.592C881.02 921.544 881.08 921.52 881.152 921.52C881.296 921.52 881.368 921.604 881.368 921.772C881.368 921.94 881.332 922.288 881.26 922.816C881.212 923.32 881.188 923.74 881.188 924.076C881.188 924.316 881.212 924.46 881.26 924.508H881.332C881.884 923.98 882.604 923.452 883.492 922.924C884.404 922.372 885.556 922.096 886.948 922.096C887.812 922.096 888.532 922.288 889.108 922.672C889.684 923.032 890.164 923.668 890.548 924.58H890.656C891.424 923.884 892.3 923.296 893.284 922.816C894.268 922.336 895.348 922.096 896.524 922.096C897.316 922.096 897.976 922.336 898.504 922.816C899.032 923.296 899.428 923.92 899.692 924.688C899.98 925.456 900.124 926.26 900.124 927.1V934.768C900.124 935.248 900.292 935.572 900.628 935.74C900.964 935.884 901.312 936.016 901.672 936.136C901.912 936.208 902.104 936.28 902.248 936.352C902.416 936.424 902.5 936.544 902.5 936.712C902.5 936.856 902.44 936.952 902.32 937C902.224 937.072 902.044 937.108 901.78 937.108C901.3 937.108 900.928 937.084 900.664 937.036C900.4 937.012 900.148 936.988 899.908 936.964C899.692 936.94 899.368 936.928 898.936 936.928C898.528 936.928 898.192 936.94 897.928 936.964C897.664 936.988 897.388 937.012 897.1 937.036C896.812 937.084 896.428 937.108 895.948 937.108C895.732 937.108 895.552 937.072 895.408 937C895.288 936.952 895.228 936.856 895.228 936.712C895.228 936.52 895.3 936.388 895.444 936.316C895.612 936.244 895.816 936.184 896.056 936.136C896.44 936.04 896.788 935.908 897.1 935.74C897.436 935.572 897.604 935.248 897.604 934.768V927.208C897.604 926.632 897.472 926.092 897.208 925.588C896.944 925.06 896.596 924.628 896.164 924.292C895.732 923.956 895.252 923.788 894.724 923.788C894.124 923.788 893.56 923.86 893.032 924.004C892.528 924.148 892.048 924.4 891.592 924.76C890.92 925.288 890.584 926.152 890.584 927.352V934.768C890.584 935.248 890.764 935.572 891.124 935.74C891.484 935.908 891.844 936.04 892.204 936.136C892.444 936.184 892.636 936.256 892.78 936.352C892.948 936.424 893.032 936.544 893.032 936.712C893.032 936.856 892.972 936.952 892.852 937C892.732 937.072 892.552 937.108 892.312 937.108C891.832 937.108 891.448 937.084 891.16 937.036C890.896 937.012 890.632 936.988 890.368 936.964C890.128 936.94 889.792 936.928 889.36 936.928C888.952 936.928 888.616 936.94 888.352 936.964C888.088 936.988 887.812 937.012 887.524 937.036C887.236 937.084 886.852 937.108 886.372 937.108C886.18 937.108 886.012 937.072 885.868 937C885.724 936.952 885.652 936.856 885.652 936.712C885.652 936.52 885.736 936.4 885.904 936.352C886.096 936.28 886.288 936.208 886.48 936.136C886.84 936.016 887.188 935.884 887.524 935.74C887.884 935.572 888.064 935.248 888.064 934.768V927.208C888.064 926.632 887.932 926.092 887.668 925.588C887.404 925.06 887.056 924.628 886.624 924.292C886.192 923.956 885.712 923.788 885.184 923.788C884.584 923.788 884.02 923.86 883.492 924.004C882.988 924.148 882.508 924.4 882.052 924.76C881.404 925.24 881.08 926.104 881.08 927.352V934.768C881.08 935.248 881.248 935.572 881.584 935.74C881.92 935.884 882.268 936.016 882.628 936.136C882.82 936.208 883 936.28 883.168 936.352C883.36 936.4 883.456 936.52 883.456 936.712C883.456 936.856 883.384 936.952 883.24 937C883.12 937.072 882.952 937.108 882.736 937.108C882.256 937.108 881.872 937.084 881.584 937.036C881.32 937.012 881.068 936.988 880.828 936.964C880.588 936.94 880.252 936.928 879.82 936.928C879.412 936.928 879.076 936.94 878.812 936.964C878.572 936.988 878.308 937.012 878.02 937.036C877.756 937.084 877.384 937.108 876.904 937.108Z" fill="black"/>
<path d="M968.333 925H1005.67M1005.67 925L987 911M1005.67 925L987 939" stroke="#1E1E1E" stroke-width="2" stroke-linecap="round" stroke-linejoin="round"/>
</g>
<rect x="589.5" y="437.5" width="566" height="87" rx="15.5" stroke="#9E9E9E"/>
<path d="M613.896 493H608.553L608.588 490.24H613.896C615.725 490.24 617.248 489.859 618.467 489.098C619.686 488.324 620.6 487.246 621.209 485.863C621.83 484.469 622.141 482.84 622.141 480.977V479.412C622.141 477.947 621.965 476.646 621.613 475.51C621.262 474.361 620.746 473.395 620.066 472.609C619.387 471.812 618.555 471.209 617.57 470.799C616.598 470.389 615.479 470.184 614.213 470.184H608.447V467.406H614.213C615.889 467.406 617.418 467.688 618.801 468.25C620.184 468.801 621.373 469.604 622.369 470.658C623.377 471.701 624.15 472.967 624.689 474.455C625.229 475.932 625.498 477.596 625.498 479.447V480.977C625.498 482.828 625.229 484.498 624.689 485.986C624.15 487.463 623.371 488.723 622.352 489.766C621.344 490.809 620.125 491.611 618.695 492.174C617.277 492.725 615.678 493 613.896 493ZM610.363 467.406V493H606.971V467.406H610.363ZM633.637 473.98V493H630.367V473.98H633.637ZM630.121 468.936C630.121 468.408 630.279 467.963 630.596 467.6C630.924 467.236 631.404 467.055 632.037 467.055C632.658 467.055 633.133 467.236 633.461 467.6C633.801 467.963 633.971 468.408 633.971 468.936C633.971 469.439 633.801 469.873 633.461 470.236C633.133 470.588 632.658 470.764 632.037 470.764C631.404 470.764 630.924 470.588 630.596 470.236C630.279 469.873 630.121 469.439 630.121 468.936ZM649.932 487.955C649.932 487.486 649.826 487.053 649.615 486.654C649.416 486.244 649 485.875 648.367 485.547C647.746 485.207 646.809 484.914 645.555 484.668C644.5 484.445 643.545 484.182 642.689 483.877C641.846 483.572 641.125 483.203 640.527 482.77C639.941 482.336 639.49 481.826 639.174 481.24C638.857 480.654 638.699 479.969 638.699 479.184C638.699 478.434 638.863 477.725 639.191 477.057C639.531 476.389 640.006 475.797 640.615 475.281C641.236 474.766 641.98 474.361 642.848 474.068C643.715 473.775 644.682 473.629 645.748 473.629C647.271 473.629 648.572 473.898 649.65 474.438C650.729 474.977 651.555 475.697 652.129 476.6C652.703 477.49 652.99 478.48 652.99 479.57H649.738C649.738 479.043 649.58 478.533 649.264 478.041C648.959 477.537 648.508 477.121 647.91 476.793C647.324 476.465 646.604 476.301 645.748 476.301C644.846 476.301 644.113 476.441 643.551 476.723C643 476.992 642.596 477.338 642.338 477.76C642.092 478.182 641.969 478.627 641.969 479.096C641.969 479.447 642.027 479.764 642.145 480.045C642.273 480.314 642.496 480.566 642.812 480.801C643.129 481.023 643.574 481.234 644.148 481.434C644.723 481.633 645.455 481.832 646.346 482.031C647.904 482.383 649.188 482.805 650.195 483.297C651.203 483.789 651.953 484.393 652.445 485.107C652.938 485.822 653.184 486.689 653.184 487.709C653.184 488.541 653.008 489.303 652.656 489.994C652.316 490.686 651.818 491.283 651.162 491.787C650.518 492.279 649.744 492.666 648.842 492.947C647.951 493.217 646.949 493.352 645.836 493.352C644.16 493.352 642.742 493.053 641.582 492.455C640.422 491.857 639.543 491.084 638.945 490.135C638.348 489.186 638.049 488.184 638.049 487.129H641.318C641.365 488.02 641.623 488.729 642.092 489.256C642.561 489.771 643.135 490.141 643.814 490.363C644.494 490.574 645.168 490.68 645.836 490.68C646.727 490.68 647.471 490.562 648.068 490.328C648.678 490.094 649.141 489.771 649.457 489.361C649.773 488.951 649.932 488.482 649.932 487.955ZM660.707 477.637V500.312H657.438V473.98H660.426L660.707 477.637ZM673.521 483.332V483.701C673.521 485.084 673.357 486.367 673.029 487.551C672.701 488.723 672.221 489.742 671.588 490.609C670.967 491.477 670.199 492.15 669.285 492.631C668.371 493.111 667.322 493.352 666.139 493.352C664.932 493.352 663.865 493.152 662.939 492.754C662.014 492.355 661.229 491.775 660.584 491.014C659.939 490.252 659.424 489.338 659.037 488.271C658.662 487.205 658.404 486.004 658.264 484.668V482.699C658.404 481.293 658.668 480.033 659.055 478.92C659.441 477.807 659.951 476.857 660.584 476.072C661.229 475.275 662.008 474.672 662.922 474.262C663.836 473.84 664.891 473.629 666.086 473.629C667.281 473.629 668.342 473.863 669.268 474.332C670.193 474.789 670.973 475.445 671.605 476.301C672.238 477.156 672.713 478.182 673.029 479.377C673.357 480.561 673.521 481.879 673.521 483.332ZM670.252 483.701V483.332C670.252 482.383 670.152 481.492 669.953 480.66C669.754 479.816 669.443 479.078 669.021 478.445C668.611 477.801 668.084 477.297 667.439 476.934C666.795 476.559 666.027 476.371 665.137 476.371C664.316 476.371 663.602 476.512 662.992 476.793C662.395 477.074 661.885 477.455 661.463 477.936C661.041 478.404 660.695 478.943 660.426 479.553C660.168 480.15 659.975 480.771 659.846 481.416V485.969C660.08 486.789 660.408 487.562 660.83 488.289C661.252 489.004 661.814 489.584 662.518 490.029C663.221 490.463 664.105 490.68 665.172 490.68C666.051 490.68 666.807 490.498 667.439 490.135C668.084 489.76 668.611 489.25 669.021 488.605C669.443 487.961 669.754 487.223 669.953 486.391C670.152 485.547 670.252 484.65 670.252 483.701ZM681.203 466V493H677.934V466H681.203ZM697.639 489.748V479.957C697.639 479.207 697.486 478.557 697.182 478.006C696.889 477.443 696.443 477.01 695.846 476.705C695.248 476.4 694.51 476.248 693.631 476.248C692.811 476.248 692.09 476.389 691.469 476.67C690.859 476.951 690.379 477.32 690.027 477.777C689.688 478.234 689.518 478.727 689.518 479.254H686.266C686.266 478.574 686.441 477.9 686.793 477.232C687.145 476.564 687.648 475.961 688.305 475.422C688.973 474.871 689.77 474.438 690.695 474.121C691.633 473.793 692.676 473.629 693.824 473.629C695.207 473.629 696.426 473.863 697.48 474.332C698.547 474.801 699.379 475.51 699.977 476.459C700.586 477.396 700.891 478.574 700.891 479.992V488.852C700.891 489.484 700.943 490.158 701.049 490.873C701.166 491.588 701.336 492.203 701.559 492.719V493H698.166C698.002 492.625 697.873 492.127 697.779 491.506C697.686 490.873 697.639 490.287 697.639 489.748ZM698.201 481.469L698.236 483.754H694.949C694.023 483.754 693.197 483.83 692.471 483.982C691.744 484.123 691.135 484.34 690.643 484.633C690.15 484.926 689.775 485.295 689.518 485.74C689.26 486.174 689.131 486.684 689.131 487.27C689.131 487.867 689.266 488.412 689.535 488.904C689.805 489.396 690.209 489.789 690.748 490.082C691.299 490.363 691.973 490.504 692.77 490.504C693.766 490.504 694.645 490.293 695.406 489.871C696.168 489.449 696.771 488.934 697.217 488.324C697.674 487.715 697.92 487.123 697.955 486.549L699.344 488.113C699.262 488.605 699.039 489.15 698.676 489.748C698.312 490.346 697.826 490.92 697.217 491.471C696.619 492.01 695.904 492.461 695.072 492.824C694.252 493.176 693.326 493.352 692.295 493.352C691.006 493.352 689.875 493.1 688.902 492.596C687.941 492.092 687.191 491.418 686.652 490.574C686.125 489.719 685.861 488.764 685.861 487.709C685.861 486.689 686.061 485.793 686.459 485.02C686.857 484.234 687.432 483.584 688.182 483.068C688.932 482.541 689.834 482.143 690.889 481.873C691.943 481.604 693.121 481.469 694.422 481.469H698.201ZM711.068 491.031L716.359 473.98H719.84L712.211 495.936C712.035 496.404 711.801 496.908 711.508 497.447C711.227 497.998 710.863 498.52 710.418 499.012C709.973 499.504 709.434 499.902 708.801 500.207C708.18 500.523 707.436 500.682 706.568 500.682C706.311 500.682 705.982 500.646 705.584 500.576C705.186 500.506 704.904 500.447 704.74 500.4L704.723 497.764C704.816 497.775 704.963 497.787 705.162 497.799C705.373 497.822 705.52 497.834 705.602 497.834C706.34 497.834 706.967 497.734 707.482 497.535C707.998 497.348 708.432 497.025 708.783 496.568C709.146 496.123 709.457 495.508 709.715 494.723L711.068 491.031ZM707.184 473.98L712.123 488.746L712.967 492.174L710.629 493.369L703.633 473.98H707.184ZM730.422 493.352C729.098 493.352 727.896 493.129 726.818 492.684C725.752 492.227 724.832 491.588 724.059 490.768C723.297 489.947 722.711 488.975 722.301 487.85C721.891 486.725 721.686 485.494 721.686 484.158V483.42C721.686 481.873 721.914 480.496 722.371 479.289C722.828 478.07 723.449 477.039 724.234 476.195C725.02 475.352 725.91 474.713 726.906 474.279C727.902 473.846 728.934 473.629 730 473.629C731.359 473.629 732.531 473.863 733.516 474.332C734.512 474.801 735.326 475.457 735.959 476.301C736.592 477.133 737.061 478.117 737.365 479.254C737.67 480.379 737.822 481.609 737.822 482.945V484.404H723.619V481.75H734.57V481.504C734.523 480.66 734.348 479.84 734.043 479.043C733.75 478.246 733.281 477.59 732.637 477.074C731.992 476.559 731.113 476.301 730 476.301C729.262 476.301 728.582 476.459 727.961 476.775C727.34 477.08 726.807 477.537 726.361 478.146C725.916 478.756 725.57 479.5 725.324 480.379C725.078 481.258 724.955 482.271 724.955 483.42V484.158C724.955 485.061 725.078 485.91 725.324 486.707C725.582 487.492 725.951 488.184 726.432 488.781C726.924 489.379 727.516 489.848 728.207 490.188C728.91 490.527 729.707 490.697 730.598 490.697C731.746 490.697 732.719 490.463 733.516 489.994C734.312 489.525 735.01 488.898 735.607 488.113L737.576 489.678C737.166 490.299 736.645 490.891 736.012 491.453C735.379 492.016 734.6 492.473 733.674 492.824C732.76 493.176 731.676 493.352 730.422 493.352ZM753.607 489.309V466H756.877V493H753.889L753.607 489.309ZM740.811 483.701V483.332C740.811 481.879 740.986 480.561 741.338 479.377C741.701 478.182 742.211 477.156 742.867 476.301C743.535 475.445 744.326 474.789 745.24 474.332C746.166 473.863 747.197 473.629 748.334 473.629C749.529 473.629 750.572 473.84 751.463 474.262C752.365 474.672 753.127 475.275 753.748 476.072C754.381 476.857 754.879 477.807 755.242 478.92C755.605 480.033 755.857 481.293 755.998 482.699V484.316C755.869 485.711 755.617 486.965 755.242 488.078C754.879 489.191 754.381 490.141 753.748 490.926C753.127 491.711 752.365 492.314 751.463 492.736C750.561 493.146 749.506 493.352 748.299 493.352C747.186 493.352 746.166 493.111 745.24 492.631C744.326 492.15 743.535 491.477 742.867 490.609C742.211 489.742 741.701 488.723 741.338 487.551C740.986 486.367 740.811 485.084 740.811 483.701ZM744.08 483.332V483.701C744.08 484.65 744.174 485.541 744.361 486.373C744.561 487.205 744.865 487.938 745.275 488.57C745.686 489.203 746.207 489.701 746.84 490.064C747.473 490.416 748.229 490.592 749.107 490.592C750.186 490.592 751.07 490.363 751.762 489.906C752.465 489.449 753.027 488.846 753.449 488.096C753.871 487.346 754.199 486.531 754.434 485.652V481.416C754.293 480.771 754.088 480.15 753.818 479.553C753.561 478.943 753.221 478.404 752.799 477.936C752.389 477.455 751.879 477.074 751.27 476.793C750.672 476.512 749.963 476.371 749.143 476.371C748.252 476.371 747.484 476.559 746.84 476.934C746.207 477.297 745.686 477.801 745.275 478.445C744.865 479.078 744.561 479.816 744.361 480.66C744.174 481.492 744.08 482.383 744.08 483.332ZM791.049 467.406V493H787.639L774.754 473.26V493H771.361V467.406H774.754L787.691 487.199V467.406H791.049ZM807.783 489.748V479.957C807.783 479.207 807.631 478.557 807.326 478.006C807.033 477.443 806.588 477.01 805.99 476.705C805.393 476.4 804.654 476.248 803.775 476.248C802.955 476.248 802.234 476.389 801.613 476.67C801.004 476.951 800.523 477.32 800.172 477.777C799.832 478.234 799.662 478.727 799.662 479.254H796.41C796.41 478.574 796.586 477.9 796.938 477.232C797.289 476.564 797.793 475.961 798.449 475.422C799.117 474.871 799.914 474.438 800.84 474.121C801.777 473.793 802.82 473.629 803.969 473.629C805.352 473.629 806.57 473.863 807.625 474.332C808.691 474.801 809.523 475.51 810.121 476.459C810.73 477.396 811.035 478.574 811.035 479.992V488.852C811.035 489.484 811.088 490.158 811.193 490.873C811.311 491.588 811.48 492.203 811.703 492.719V493H808.311C808.146 492.625 808.018 492.127 807.924 491.506C807.83 490.873 807.783 490.287 807.783 489.748ZM808.346 481.469L808.381 483.754H805.094C804.168 483.754 803.342 483.83 802.615 483.982C801.889 484.123 801.279 484.34 800.787 484.633C800.295 484.926 799.92 485.295 799.662 485.74C799.404 486.174 799.275 486.684 799.275 487.27C799.275 487.867 799.41 488.412 799.68 488.904C799.949 489.396 800.354 489.789 800.893 490.082C801.443 490.363 802.117 490.504 802.914 490.504C803.91 490.504 804.789 490.293 805.551 489.871C806.312 489.449 806.916 488.934 807.361 488.324C807.818 487.715 808.064 487.123 808.1 486.549L809.488 488.113C809.406 488.605 809.184 489.15 808.82 489.748C808.457 490.346 807.971 490.92 807.361 491.471C806.764 492.01 806.049 492.461 805.217 492.824C804.396 493.176 803.471 493.352 802.439 493.352C801.15 493.352 800.02 493.1 799.047 492.596C798.086 492.092 797.336 491.418 796.797 490.574C796.27 489.719 796.006 488.764 796.006 487.709C796.006 486.689 796.205 485.793 796.604 485.02C797.002 484.234 797.576 483.584 798.326 483.068C799.076 482.541 799.979 482.143 801.033 481.873C802.088 481.604 803.266 481.469 804.566 481.469H808.346ZM819.385 477.76V493H816.115V473.98H819.209L819.385 477.76ZM818.717 482.77L817.205 482.717C817.217 481.416 817.387 480.215 817.715 479.113C818.043 478 818.529 477.033 819.174 476.213C819.818 475.393 820.621 474.76 821.582 474.314C822.543 473.857 823.656 473.629 824.922 473.629C825.812 473.629 826.633 473.758 827.383 474.016C828.133 474.262 828.783 474.654 829.334 475.193C829.885 475.732 830.312 476.424 830.617 477.268C830.922 478.111 831.074 479.131 831.074 480.326V493H827.822V480.484C827.822 479.488 827.652 478.691 827.312 478.094C826.984 477.496 826.516 477.062 825.906 476.793C825.297 476.512 824.582 476.371 823.762 476.371C822.801 476.371 821.998 476.541 821.354 476.881C820.709 477.221 820.193 477.689 819.807 478.287C819.42 478.885 819.139 479.57 818.963 480.344C818.799 481.105 818.717 481.914 818.717 482.77ZM831.039 480.977L828.859 481.645C828.871 480.602 829.041 479.6 829.369 478.639C829.709 477.678 830.195 476.822 830.828 476.072C831.473 475.322 832.264 474.73 833.201 474.297C834.139 473.852 835.211 473.629 836.418 473.629C837.438 473.629 838.34 473.764 839.125 474.033C839.922 474.303 840.59 474.719 841.129 475.281C841.68 475.832 842.096 476.541 842.377 477.408C842.658 478.275 842.799 479.307 842.799 480.502V493H839.529V480.467C839.529 479.4 839.359 478.574 839.02 477.988C838.691 477.391 838.223 476.975 837.613 476.74C837.016 476.494 836.301 476.371 835.469 476.371C834.754 476.371 834.121 476.494 833.57 476.74C833.02 476.986 832.557 477.326 832.182 477.76C831.807 478.182 831.52 478.668 831.32 479.219C831.133 479.77 831.039 480.355 831.039 480.977ZM855.613 493.352C854.289 493.352 853.088 493.129 852.01 492.684C850.943 492.227 850.023 491.588 849.25 490.768C848.488 489.947 847.902 488.975 847.492 487.85C847.082 486.725 846.877 485.494 846.877 484.158V483.42C846.877 481.873 847.105 480.496 847.562 479.289C848.02 478.07 848.641 477.039 849.426 476.195C850.211 475.352 851.102 474.713 852.098 474.279C853.094 473.846 854.125 473.629 855.191 473.629C856.551 473.629 857.723 473.863 858.707 474.332C859.703 474.801 860.518 475.457 861.15 476.301C861.783 477.133 862.252 478.117 862.557 479.254C862.861 480.379 863.014 481.609 863.014 482.945V484.404H848.811V481.75H859.762V481.504C859.715 480.66 859.539 479.84 859.234 479.043C858.941 478.246 858.473 477.59 857.828 477.074C857.184 476.559 856.305 476.301 855.191 476.301C854.453 476.301 853.773 476.459 853.152 476.775C852.531 477.08 851.998 477.537 851.553 478.146C851.107 478.756 850.762 479.5 850.516 480.379C850.27 481.258 850.146 482.271 850.146 483.42V484.158C850.146 485.061 850.27 485.91 850.516 486.707C850.773 487.492 851.143 488.184 851.623 488.781C852.115 489.379 852.707 489.848 853.398 490.188C854.102 490.527 854.898 490.697 855.789 490.697C856.938 490.697 857.91 490.463 858.707 489.994C859.504 489.525 860.201 488.898 860.799 488.113L862.768 489.678C862.357 490.299 861.836 490.891 861.203 491.453C860.57 492.016 859.791 492.473 858.865 492.824C857.951 493.176 856.867 493.352 855.613 493.352Z" fill="black" fill-opacity="0.25"/>
<rect x="589.5" y="299.5" width="566" height="87" rx="15.5" stroke="#9E9E9E"/>
<path d="M621.613 329.406H624.988V346.721C624.988 348.643 624.561 350.242 623.705 351.52C622.85 352.797 621.713 353.758 620.295 354.402C618.889 355.035 617.359 355.352 615.707 355.352C613.973 355.352 612.402 355.035 610.996 354.402C609.602 353.758 608.494 352.797 607.674 351.52C606.865 350.242 606.461 348.643 606.461 346.721V329.406H609.818V346.721C609.818 348.057 610.064 349.158 610.557 350.025C611.049 350.893 611.734 351.537 612.613 351.959C613.504 352.381 614.535 352.592 615.707 352.592C616.891 352.592 617.922 352.381 618.801 351.959C619.691 351.537 620.383 350.893 620.875 350.025C621.367 349.158 621.613 348.057 621.613 346.721V329.406ZM640.896 349.955C640.896 349.486 640.791 349.053 640.58 348.654C640.381 348.244 639.965 347.875 639.332 347.547C638.711 347.207 637.773 346.914 636.52 346.668C635.465 346.445 634.51 346.182 633.654 345.877C632.811 345.572 632.09 345.203 631.492 344.77C630.906 344.336 630.455 343.826 630.139 343.24C629.822 342.654 629.664 341.969 629.664 341.184C629.664 340.434 629.828 339.725 630.156 339.057C630.496 338.389 630.971 337.797 631.58 337.281C632.201 336.766 632.945 336.361 633.812 336.068C634.68 335.775 635.646 335.629 636.713 335.629C638.236 335.629 639.537 335.898 640.615 336.438C641.693 336.977 642.52 337.697 643.094 338.6C643.668 339.49 643.955 340.48 643.955 341.57H640.703C640.703 341.043 640.545 340.533 640.229 340.041C639.924 339.537 639.473 339.121 638.875 338.793C638.289 338.465 637.568 338.301 636.713 338.301C635.811 338.301 635.078 338.441 634.516 338.723C633.965 338.992 633.561 339.338 633.303 339.76C633.057 340.182 632.934 340.627 632.934 341.096C632.934 341.447 632.992 341.764 633.109 342.045C633.238 342.314 633.461 342.566 633.777 342.801C634.094 343.023 634.539 343.234 635.113 343.434C635.688 343.633 636.42 343.832 637.311 344.031C638.869 344.383 640.152 344.805 641.16 345.297C642.168 345.789 642.918 346.393 643.41 347.107C643.902 347.822 644.148 348.689 644.148 349.709C644.148 350.541 643.973 351.303 643.621 351.994C643.281 352.686 642.783 353.283 642.127 353.787C641.482 354.279 640.709 354.666 639.807 354.947C638.916 355.217 637.914 355.352 636.801 355.352C635.125 355.352 633.707 355.053 632.547 354.455C631.387 353.857 630.508 353.084 629.91 352.135C629.312 351.186 629.014 350.184 629.014 349.129H632.283C632.33 350.02 632.588 350.729 633.057 351.256C633.525 351.771 634.1 352.141 634.779 352.363C635.459 352.574 636.133 352.68 636.801 352.68C637.691 352.68 638.436 352.562 639.033 352.328C639.643 352.094 640.105 351.771 640.422 351.361C640.738 350.951 640.896 350.482 640.896 349.955ZM656.312 355.352C654.988 355.352 653.787 355.129 652.709 354.684C651.643 354.227 650.723 353.588 649.949 352.768C649.188 351.947 648.602 350.975 648.191 349.85C647.781 348.725 647.576 347.494 647.576 346.158V345.42C647.576 343.873 647.805 342.496 648.262 341.289C648.719 340.07 649.34 339.039 650.125 338.195C650.91 337.352 651.801 336.713 652.797 336.279C653.793 335.846 654.824 335.629 655.891 335.629C657.25 335.629 658.422 335.863 659.406 336.332C660.402 336.801 661.217 337.457 661.85 338.301C662.482 339.133 662.951 340.117 663.256 341.254C663.561 342.379 663.713 343.609 663.713 344.945V346.404H649.51V343.75H660.461V343.504C660.414 342.66 660.238 341.84 659.934 341.043C659.641 340.246 659.172 339.59 658.527 339.074C657.883 338.559 657.004 338.301 655.891 338.301C655.152 338.301 654.473 338.459 653.852 338.775C653.23 339.08 652.697 339.537 652.252 340.146C651.807 340.756 651.461 341.5 651.215 342.379C650.969 343.258 650.846 344.271 650.846 345.42V346.158C650.846 347.061 650.969 347.91 651.215 348.707C651.473 349.492 651.842 350.184 652.322 350.781C652.814 351.379 653.406 351.848 654.098 352.188C654.801 352.527 655.598 352.697 656.488 352.697C657.637 352.697 658.609 352.463 659.406 351.994C660.203 351.525 660.9 350.898 661.498 350.113L663.467 351.678C663.057 352.299 662.535 352.891 661.902 353.453C661.27 354.016 660.49 354.473 659.564 354.824C658.65 355.176 657.566 355.352 656.312 355.352ZM670.762 338.969V355H667.51V335.98H670.674L670.762 338.969ZM676.703 335.875L676.686 338.898C676.416 338.84 676.158 338.805 675.912 338.793C675.678 338.77 675.408 338.758 675.104 338.758C674.354 338.758 673.691 338.875 673.117 339.109C672.543 339.344 672.057 339.672 671.658 340.094C671.26 340.516 670.943 341.02 670.709 341.605C670.486 342.18 670.34 342.812 670.27 343.504L669.355 344.031C669.355 342.883 669.467 341.805 669.689 340.797C669.924 339.789 670.281 338.898 670.762 338.125C671.242 337.34 671.852 336.73 672.59 336.297C673.34 335.852 674.23 335.629 675.262 335.629C675.496 335.629 675.766 335.658 676.07 335.717C676.375 335.764 676.586 335.816 676.703 335.875ZM708.818 329.406V355H705.408L692.523 335.26V355H689.131V329.406H692.523L705.461 349.199V329.406H708.818ZM725.553 351.748V341.957C725.553 341.207 725.4 340.557 725.096 340.006C724.803 339.443 724.357 339.01 723.76 338.705C723.162 338.4 722.424 338.248 721.545 338.248C720.725 338.248 720.004 338.389 719.383 338.67C718.773 338.951 718.293 339.32 717.941 339.777C717.602 340.234 717.432 340.727 717.432 341.254H714.18C714.18 340.574 714.355 339.9 714.707 339.232C715.059 338.564 715.562 337.961 716.219 337.422C716.887 336.871 717.684 336.438 718.609 336.121C719.547 335.793 720.59 335.629 721.738 335.629C723.121 335.629 724.34 335.863 725.395 336.332C726.461 336.801 727.293 337.51 727.891 338.459C728.5 339.396 728.805 340.574 728.805 341.992V350.852C728.805 351.484 728.857 352.158 728.963 352.873C729.08 353.588 729.25 354.203 729.473 354.719V355H726.08C725.916 354.625 725.787 354.127 725.693 353.506C725.6 352.873 725.553 352.287 725.553 351.748ZM726.115 343.469L726.15 345.754H722.863C721.938 345.754 721.111 345.83 720.385 345.982C719.658 346.123 719.049 346.34 718.557 346.633C718.064 346.926 717.689 347.295 717.432 347.74C717.174 348.174 717.045 348.684 717.045 349.27C717.045 349.867 717.18 350.412 717.449 350.904C717.719 351.396 718.123 351.789 718.662 352.082C719.213 352.363 719.887 352.504 720.684 352.504C721.68 352.504 722.559 352.293 723.32 351.871C724.082 351.449 724.686 350.934 725.131 350.324C725.588 349.715 725.834 349.123 725.869 348.549L727.258 350.113C727.176 350.605 726.953 351.15 726.59 351.748C726.227 352.346 725.74 352.92 725.131 353.471C724.533 354.01 723.818 354.461 722.986 354.824C722.166 355.176 721.24 355.352 720.209 355.352C718.92 355.352 717.789 355.1 716.816 354.596C715.855 354.092 715.105 353.418 714.566 352.574C714.039 351.719 713.775 350.764 713.775 349.709C713.775 348.689 713.975 347.793 714.373 347.02C714.771 346.234 715.346 345.584 716.096 345.068C716.846 344.541 717.748 344.143 718.803 343.873C719.857 343.604 721.035 343.469 722.336 343.469H726.115ZM737.154 339.76V355H733.885V335.98H736.979L737.154 339.76ZM736.486 344.77L734.975 344.717C734.986 343.416 735.156 342.215 735.484 341.113C735.812 340 736.299 339.033 736.943 338.213C737.588 337.393 738.391 336.76 739.352 336.314C740.312 335.857 741.426 335.629 742.691 335.629C743.582 335.629 744.402 335.758 745.152 336.016C745.902 336.262 746.553 336.654 747.104 337.193C747.654 337.732 748.082 338.424 748.387 339.268C748.691 340.111 748.844 341.131 748.844 342.326V355H745.592V342.484C745.592 341.488 745.422 340.691 745.082 340.094C744.754 339.496 744.285 339.062 743.676 338.793C743.066 338.512 742.352 338.371 741.531 338.371C740.57 338.371 739.768 338.541 739.123 338.881C738.479 339.221 737.963 339.689 737.576 340.287C737.189 340.885 736.908 341.57 736.732 342.344C736.568 343.105 736.486 343.914 736.486 344.77ZM748.809 342.977L746.629 343.645C746.641 342.602 746.811 341.6 747.139 340.639C747.479 339.678 747.965 338.822 748.598 338.072C749.242 337.322 750.033 336.73 750.971 336.297C751.908 335.852 752.98 335.629 754.188 335.629C755.207 335.629 756.109 335.764 756.895 336.033C757.691 336.303 758.359 336.719 758.898 337.281C759.449 337.832 759.865 338.541 760.146 339.408C760.428 340.275 760.568 341.307 760.568 342.502V355H757.299V342.467C757.299 341.4 757.129 340.574 756.789 339.988C756.461 339.391 755.992 338.975 755.383 338.74C754.785 338.494 754.07 338.371 753.238 338.371C752.523 338.371 751.891 338.494 751.34 338.74C750.789 338.986 750.326 339.326 749.951 339.76C749.576 340.182 749.289 340.668 749.09 341.219C748.902 341.77 748.809 342.355 748.809 342.977ZM773.383 355.352C772.059 355.352 770.857 355.129 769.779 354.684C768.713 354.227 767.793 353.588 767.02 352.768C766.258 351.947 765.672 350.975 765.262 349.85C764.852 348.725 764.646 347.494 764.646 346.158V345.42C764.646 343.873 764.875 342.496 765.332 341.289C765.789 340.07 766.41 339.039 767.195 338.195C767.98 337.352 768.871 336.713 769.867 336.279C770.863 335.846 771.895 335.629 772.961 335.629C774.32 335.629 775.492 335.863 776.477 336.332C777.473 336.801 778.287 337.457 778.92 338.301C779.553 339.133 780.021 340.117 780.326 341.254C780.631 342.379 780.783 343.609 780.783 344.945V346.404H766.58V343.75H777.531V343.504C777.484 342.66 777.309 341.84 777.004 341.043C776.711 340.246 776.242 339.59 775.598 339.074C774.953 338.559 774.074 338.301 772.961 338.301C772.223 338.301 771.543 338.459 770.922 338.775C770.301 339.08 769.768 339.537 769.322 340.146C768.877 340.756 768.531 341.5 768.285 342.379C768.039 343.258 767.916 344.271 767.916 345.42V346.158C767.916 347.061 768.039 347.91 768.285 348.707C768.543 349.492 768.912 350.184 769.393 350.781C769.885 351.379 770.477 351.848 771.168 352.188C771.871 352.527 772.668 352.697 773.559 352.697C774.707 352.697 775.68 352.463 776.477 351.994C777.273 351.525 777.971 350.898 778.568 350.113L780.537 351.678C780.127 352.299 779.605 352.891 778.973 353.453C778.34 354.016 777.561 354.473 776.635 354.824C775.721 355.176 774.637 355.352 773.383 355.352Z" fill="black" fill-opacity="0.25"/>
<rect x="590.5" y="575.5" width="566" height="87" rx="15.5" stroke="#9E9E9E"/>
<path d="M624.23 628.24V631H610.678V628.24H624.23ZM611.363 605.406V631H607.971V605.406H611.363ZM622.438 616.41V619.17H610.678V616.41H622.438ZM624.055 605.406V608.184H610.678V605.406H624.055ZM631.174 615.76V631H627.904V611.98H630.998L631.174 615.76ZM630.506 620.77L628.994 620.717C629.006 619.416 629.176 618.215 629.504 617.113C629.832 616 630.318 615.033 630.963 614.213C631.607 613.393 632.41 612.76 633.371 612.314C634.332 611.857 635.445 611.629 636.711 611.629C637.602 611.629 638.422 611.758 639.172 612.016C639.922 612.262 640.572 612.654 641.123 613.193C641.674 613.732 642.102 614.424 642.406 615.268C642.711 616.111 642.863 617.131 642.863 618.326V631H639.611V618.484C639.611 617.488 639.441 616.691 639.102 616.094C638.773 615.496 638.305 615.062 637.695 614.793C637.086 614.512 636.371 614.371 635.551 614.371C634.59 614.371 633.787 614.541 633.143 614.881C632.498 615.221 631.982 615.689 631.596 616.287C631.209 616.885 630.928 617.57 630.752 618.344C630.588 619.105 630.506 619.914 630.506 620.77ZM642.828 618.977L640.648 619.645C640.66 618.602 640.83 617.6 641.158 616.639C641.498 615.678 641.984 614.822 642.617 614.072C643.262 613.322 644.053 612.73 644.99 612.297C645.928 611.852 647 611.629 648.207 611.629C649.227 611.629 650.129 611.764 650.914 612.033C651.711 612.303 652.379 612.719 652.918 613.281C653.469 613.832 653.885 614.541 654.166 615.408C654.447 616.275 654.588 617.307 654.588 618.502V631H651.318V618.467C651.318 617.4 651.148 616.574 650.809 615.988C650.48 615.391 650.012 614.975 649.402 614.74C648.805 614.494 648.09 614.371 647.258 614.371C646.543 614.371 645.91 614.494 645.359 614.74C644.809 614.986 644.346 615.326 643.971 615.76C643.596 616.182 643.309 616.668 643.109 617.219C642.922 617.77 642.828 618.355 642.828 618.977ZM670.725 627.748V617.957C670.725 617.207 670.572 616.557 670.268 616.006C669.975 615.443 669.529 615.01 668.932 614.705C668.334 614.4 667.596 614.248 666.717 614.248C665.896 614.248 665.176 614.389 664.555 614.67C663.945 614.951 663.465 615.32 663.113 615.777C662.773 616.234 662.604 616.727 662.604 617.254H659.352C659.352 616.574 659.527 615.9 659.879 615.232C660.23 614.564 660.734 613.961 661.391 613.422C662.059 612.871 662.855 612.438 663.781 612.121C664.719 611.793 665.762 611.629 666.91 611.629C668.293 611.629 669.512 611.863 670.566 612.332C671.633 612.801 672.465 613.51 673.062 614.459C673.672 615.396 673.977 616.574 673.977 617.992V626.852C673.977 627.484 674.029 628.158 674.135 628.873C674.252 629.588 674.422 630.203 674.645 630.719V631H671.252C671.088 630.625 670.959 630.127 670.865 629.506C670.771 628.873 670.725 628.287 670.725 627.748ZM671.287 619.469L671.322 621.754H668.035C667.109 621.754 666.283 621.83 665.557 621.982C664.83 622.123 664.221 622.34 663.729 622.633C663.236 622.926 662.861 623.295 662.604 623.74C662.346 624.174 662.217 624.684 662.217 625.27C662.217 625.867 662.352 626.412 662.621 626.904C662.891 627.396 663.295 627.789 663.834 628.082C664.385 628.363 665.059 628.504 665.855 628.504C666.852 628.504 667.73 628.293 668.492 627.871C669.254 627.449 669.857 626.934 670.303 626.324C670.76 625.715 671.006 625.123 671.041 624.549L672.43 626.113C672.348 626.605 672.125 627.15 671.762 627.748C671.398 628.346 670.912 628.92 670.303 629.471C669.705 630.01 668.99 630.461 668.158 630.824C667.338 631.176 666.412 631.352 665.381 631.352C664.092 631.352 662.961 631.1 661.988 630.596C661.027 630.092 660.277 629.418 659.738 628.574C659.211 627.719 658.947 626.764 658.947 625.709C658.947 624.689 659.146 623.793 659.545 623.02C659.943 622.234 660.518 621.584 661.268 621.068C662.018 620.541 662.92 620.143 663.975 619.873C665.029 619.604 666.207 619.469 667.508 619.469H671.287ZM682.625 611.98V631H679.355V611.98H682.625ZM679.109 606.936C679.109 606.408 679.268 605.963 679.584 605.6C679.912 605.236 680.393 605.055 681.025 605.055C681.646 605.055 682.121 605.236 682.449 605.6C682.789 605.963 682.959 606.408 682.959 606.936C682.959 607.439 682.789 607.873 682.449 608.236C682.121 608.588 681.646 608.764 681.025 608.764C680.393 608.764 679.912 608.588 679.584 608.236C679.268 607.873 679.109 607.439 679.109 606.936ZM691.379 604V631H688.109V604H691.379Z" fill="black" fill-opacity="0.25"/>
<rect x="590.5" y="713.5" width="566" height="87" rx="15.5" stroke="#9E9E9E"/>
<path d="M617.41 758.963H610.572V756.203H617.41C618.734 756.203 619.807 755.992 620.627 755.57C621.447 755.148 622.045 754.562 622.42 753.812C622.807 753.062 623 752.207 623 751.246C623 750.367 622.807 749.541 622.42 748.768C622.045 747.994 621.447 747.373 620.627 746.904C619.807 746.424 618.734 746.184 617.41 746.184H611.363V769H607.971V743.406H617.41C619.344 743.406 620.979 743.74 622.314 744.408C623.65 745.076 624.664 746.002 625.355 747.186C626.047 748.357 626.393 749.699 626.393 751.211C626.393 752.852 626.047 754.252 625.355 755.412C624.664 756.572 623.65 757.457 622.314 758.066C620.979 758.664 619.344 758.963 617.41 758.963ZM641.193 765.748V755.957C641.193 755.207 641.041 754.557 640.736 754.006C640.443 753.443 639.998 753.01 639.4 752.705C638.803 752.4 638.064 752.248 637.186 752.248C636.365 752.248 635.645 752.389 635.023 752.67C634.414 752.951 633.934 753.32 633.582 753.777C633.242 754.234 633.072 754.727 633.072 755.254H629.82C629.82 754.574 629.996 753.9 630.348 753.232C630.699 752.564 631.203 751.961 631.859 751.422C632.527 750.871 633.324 750.438 634.25 750.121C635.188 749.793 636.23 749.629 637.379 749.629C638.762 749.629 639.98 749.863 641.035 750.332C642.102 750.801 642.934 751.51 643.531 752.459C644.141 753.396 644.445 754.574 644.445 755.992V764.852C644.445 765.484 644.498 766.158 644.604 766.873C644.721 767.588 644.891 768.203 645.113 768.719V769H641.721C641.557 768.625 641.428 768.127 641.334 767.506C641.24 766.873 641.193 766.287 641.193 765.748ZM641.756 757.469L641.791 759.754H638.504C637.578 759.754 636.752 759.83 636.025 759.982C635.299 760.123 634.689 760.34 634.197 760.633C633.705 760.926 633.33 761.295 633.072 761.74C632.814 762.174 632.686 762.684 632.686 763.27C632.686 763.867 632.82 764.412 633.09 764.904C633.359 765.396 633.764 765.789 634.303 766.082C634.854 766.363 635.527 766.504 636.324 766.504C637.32 766.504 638.199 766.293 638.961 765.871C639.723 765.449 640.326 764.934 640.771 764.324C641.229 763.715 641.475 763.123 641.51 762.549L642.898 764.113C642.816 764.605 642.594 765.15 642.23 765.748C641.867 766.346 641.381 766.92 640.771 767.471C640.174 768.01 639.459 768.461 638.627 768.824C637.807 769.176 636.881 769.352 635.85 769.352C634.561 769.352 633.43 769.1 632.457 768.596C631.496 768.092 630.746 767.418 630.207 766.574C629.68 765.719 629.416 764.764 629.416 763.709C629.416 762.689 629.615 761.793 630.014 761.02C630.412 760.234 630.986 759.584 631.736 759.068C632.486 758.541 633.389 758.143 634.443 757.873C635.498 757.604 636.676 757.469 637.977 757.469H641.756ZM660.635 763.955C660.635 763.486 660.529 763.053 660.318 762.654C660.119 762.244 659.703 761.875 659.07 761.547C658.449 761.207 657.512 760.914 656.258 760.668C655.203 760.445 654.248 760.182 653.393 759.877C652.549 759.572 651.828 759.203 651.23 758.77C650.645 758.336 650.193 757.826 649.877 757.24C649.561 756.654 649.402 755.969 649.402 755.184C649.402 754.434 649.566 753.725 649.895 753.057C650.234 752.389 650.709 751.797 651.318 751.281C651.939 750.766 652.684 750.361 653.551 750.068C654.418 749.775 655.385 749.629 656.451 749.629C657.975 749.629 659.275 749.898 660.354 750.438C661.432 750.977 662.258 751.697 662.832 752.6C663.406 753.49 663.693 754.48 663.693 755.57H660.441C660.441 755.043 660.283 754.533 659.967 754.041C659.662 753.537 659.211 753.121 658.613 752.793C658.027 752.465 657.307 752.301 656.451 752.301C655.549 752.301 654.816 752.441 654.254 752.723C653.703 752.992 653.299 753.338 653.041 753.76C652.795 754.182 652.672 754.627 652.672 755.096C652.672 755.447 652.73 755.764 652.848 756.045C652.977 756.314 653.199 756.566 653.516 756.801C653.832 757.023 654.277 757.234 654.852 757.434C655.426 757.633 656.158 757.832 657.049 758.031C658.607 758.383 659.891 758.805 660.898 759.297C661.906 759.789 662.656 760.393 663.148 761.107C663.641 761.822 663.887 762.689 663.887 763.709C663.887 764.541 663.711 765.303 663.359 765.994C663.02 766.686 662.521 767.283 661.865 767.787C661.221 768.279 660.447 768.666 659.545 768.947C658.654 769.217 657.652 769.352 656.539 769.352C654.863 769.352 653.445 769.053 652.285 768.455C651.125 767.857 650.246 767.084 649.648 766.135C649.051 765.186 648.752 764.184 648.752 763.129H652.021C652.068 764.02 652.326 764.729 652.795 765.256C653.264 765.771 653.838 766.141 654.518 766.363C655.197 766.574 655.871 766.68 656.539 766.68C657.43 766.68 658.174 766.562 658.771 766.328C659.381 766.094 659.844 765.771 660.16 765.361C660.477 764.951 660.635 764.482 660.635 763.955ZM679.232 763.955C679.232 763.486 679.127 763.053 678.916 762.654C678.717 762.244 678.301 761.875 677.668 761.547C677.047 761.207 676.109 760.914 674.855 760.668C673.801 760.445 672.846 760.182 671.99 759.877C671.146 759.572 670.426 759.203 669.828 758.77C669.242 758.336 668.791 757.826 668.475 757.24C668.158 756.654 668 755.969 668 755.184C668 754.434 668.164 753.725 668.492 753.057C668.832 752.389 669.307 751.797 669.916 751.281C670.537 750.766 671.281 750.361 672.148 750.068C673.016 749.775 673.982 749.629 675.049 749.629C676.572 749.629 677.873 749.898 678.951 750.438C680.029 750.977 680.855 751.697 681.43 752.6C682.004 753.49 682.291 754.48 682.291 755.57H679.039C679.039 755.043 678.881 754.533 678.564 754.041C678.26 753.537 677.809 753.121 677.211 752.793C676.625 752.465 675.904 752.301 675.049 752.301C674.146 752.301 673.414 752.441 672.852 752.723C672.301 752.992 671.896 753.338 671.639 753.76C671.393 754.182 671.27 754.627 671.27 755.096C671.27 755.447 671.328 755.764 671.445 756.045C671.574 756.314 671.797 756.566 672.113 756.801C672.43 757.023 672.875 757.234 673.449 757.434C674.023 757.633 674.756 757.832 675.646 758.031C677.205 758.383 678.488 758.805 679.496 759.297C680.504 759.789 681.254 760.393 681.746 761.107C682.238 761.822 682.484 762.689 682.484 763.709C682.484 764.541 682.309 765.303 681.957 765.994C681.617 766.686 681.119 767.283 680.463 767.787C679.818 768.279 679.045 768.666 678.143 768.947C677.252 769.217 676.25 769.352 675.137 769.352C673.461 769.352 672.043 769.053 670.883 768.455C669.723 767.857 668.844 767.084 668.246 766.135C667.648 765.186 667.35 764.184 667.35 763.129H670.619C670.666 764.02 670.924 764.729 671.393 765.256C671.861 765.771 672.436 766.141 673.115 766.363C673.795 766.574 674.469 766.68 675.137 766.68C676.027 766.68 676.771 766.562 677.369 766.328C677.979 766.094 678.441 765.771 678.758 765.361C679.074 764.951 679.232 764.482 679.232 763.955ZM691.572 765.625L696.459 749.98H698.604L698.182 753.092L693.207 769H691.115L691.572 765.625ZM688.285 749.98L692.451 765.801L692.75 769H690.553L685.033 749.98H688.285ZM703.279 765.678L707.252 749.98H710.486L704.967 769H702.787L703.279 765.678ZM699.078 749.98L703.859 765.361L704.404 769H702.33L697.215 753.057L696.793 749.98H699.078ZM725.041 765.748V755.957C725.041 755.207 724.889 754.557 724.584 754.006C724.291 753.443 723.846 753.01 723.248 752.705C722.65 752.4 721.912 752.248 721.033 752.248C720.213 752.248 719.492 752.389 718.871 752.67C718.262 752.951 717.781 753.32 717.43 753.777C717.09 754.234 716.92 754.727 716.92 755.254H713.668C713.668 754.574 713.844 753.9 714.195 753.232C714.547 752.564 715.051 751.961 715.707 751.422C716.375 750.871 717.172 750.438 718.098 750.121C719.035 749.793 720.078 749.629 721.227 749.629C722.609 749.629 723.828 749.863 724.883 750.332C725.949 750.801 726.781 751.51 727.379 752.459C727.988 753.396 728.293 754.574 728.293 755.992V764.852C728.293 765.484 728.346 766.158 728.451 766.873C728.568 767.588 728.738 768.203 728.961 768.719V769H725.568C725.404 768.625 725.275 768.127 725.182 767.506C725.088 766.873 725.041 766.287 725.041 765.748ZM725.604 757.469L725.639 759.754H722.352C721.426 759.754 720.6 759.83 719.873 759.982C719.146 760.123 718.537 760.34 718.045 760.633C717.553 760.926 717.178 761.295 716.92 761.74C716.662 762.174 716.533 762.684 716.533 763.27C716.533 763.867 716.668 764.412 716.938 764.904C717.207 765.396 717.611 765.789 718.15 766.082C718.701 766.363 719.375 766.504 720.172 766.504C721.168 766.504 722.047 766.293 722.809 765.871C723.57 765.449 724.174 764.934 724.619 764.324C725.076 763.715 725.322 763.123 725.357 762.549L726.746 764.113C726.664 764.605 726.441 765.15 726.078 765.748C725.715 766.346 725.229 766.92 724.619 767.471C724.021 768.01 723.307 768.461 722.475 768.824C721.654 769.176 720.729 769.352 719.697 769.352C718.408 769.352 717.277 769.1 716.305 768.596C715.344 768.092 714.594 767.418 714.055 766.574C713.527 765.719 713.264 764.764 713.264 763.709C713.264 762.689 713.463 761.793 713.861 761.02C714.26 760.234 714.834 759.584 715.584 759.068C716.334 758.541 717.236 758.143 718.291 757.873C719.346 757.604 720.523 757.469 721.824 757.469H725.604ZM736.66 752.969V769H733.408V749.98H736.572L736.66 752.969ZM742.602 749.875L742.584 752.898C742.314 752.84 742.057 752.805 741.811 752.793C741.576 752.77 741.307 752.758 741.002 752.758C740.252 752.758 739.59 752.875 739.016 753.109C738.441 753.344 737.955 753.672 737.557 754.094C737.158 754.516 736.842 755.02 736.607 755.605C736.385 756.18 736.238 756.812 736.168 757.504L735.254 758.031C735.254 756.883 735.365 755.805 735.588 754.797C735.822 753.789 736.18 752.898 736.66 752.125C737.141 751.34 737.75 750.73 738.488 750.297C739.238 749.852 740.129 749.629 741.16 749.629C741.395 749.629 741.664 749.658 741.969 749.717C742.273 749.764 742.484 749.816 742.602 749.875ZM757.244 765.309V742H760.514V769H757.525L757.244 765.309ZM744.447 759.701V759.332C744.447 757.879 744.623 756.561 744.975 755.377C745.338 754.182 745.848 753.156 746.504 752.301C747.172 751.445 747.963 750.789 748.877 750.332C749.803 749.863 750.834 749.629 751.971 749.629C753.166 749.629 754.209 749.84 755.1 750.262C756.002 750.672 756.764 751.275 757.385 752.072C758.018 752.857 758.516 753.807 758.879 754.92C759.242 756.033 759.494 757.293 759.635 758.699V760.316C759.506 761.711 759.254 762.965 758.879 764.078C758.516 765.191 758.018 766.141 757.385 766.926C756.764 767.711 756.002 768.314 755.1 768.736C754.197 769.146 753.143 769.352 751.936 769.352C750.822 769.352 749.803 769.111 748.877 768.631C747.963 768.15 747.172 767.477 746.504 766.609C745.848 765.742 745.338 764.723 744.975 763.551C744.623 762.367 744.447 761.084 744.447 759.701ZM747.717 759.332V759.701C747.717 760.65 747.811 761.541 747.998 762.373C748.197 763.205 748.502 763.938 748.912 764.57C749.322 765.203 749.844 765.701 750.477 766.064C751.109 766.416 751.865 766.592 752.744 766.592C753.822 766.592 754.707 766.363 755.398 765.906C756.102 765.449 756.664 764.846 757.086 764.096C757.508 763.346 757.836 762.531 758.07 761.652V757.416C757.93 756.771 757.725 756.15 757.455 755.553C757.197 754.943 756.857 754.404 756.436 753.936C756.025 753.455 755.516 753.074 754.906 752.793C754.309 752.512 753.6 752.371 752.779 752.371C751.889 752.371 751.121 752.559 750.477 752.934C749.844 753.297 749.322 753.801 748.912 754.445C748.502 755.078 748.197 755.816 747.998 756.66C747.811 757.492 747.717 758.383 747.717 759.332Z" fill="black" fill-opacity="0.25"/>
<path d="M792.15 213.024C790.358 213.024 788.694 212.747 787.158 212.192C785.664 211.68 784.32 210.933 783.126 209.952C782.955 209.781 782.784 209.589 782.614 209.376C782.486 209.163 782.379 208.928 782.294 208.672C782.08 207.819 781.931 206.709 781.846 205.344C781.803 203.979 781.739 202.848 781.654 201.952C781.654 201.653 781.782 201.44 782.038 201.312C782.294 201.141 782.592 201.056 782.934 201.056C783.147 201.056 783.36 201.12 783.574 201.248C783.787 201.333 783.915 201.504 783.958 201.76C784.811 205.045 786.07 207.392 787.734 208.8C789.44 210.208 791.211 210.912 793.046 210.912C794.539 210.912 795.862 210.592 797.014 209.952C798.166 209.312 799.062 208.416 799.702 207.264C800.384 206.069 800.726 204.683 800.726 203.104C800.726 201.355 800.427 199.947 799.83 198.88C799.275 197.771 798.464 196.811 797.398 196C796.331 195.189 795.03 194.315 793.494 193.376C791.83 192.309 790.187 191.243 788.566 190.176C786.944 189.067 785.6 187.808 784.534 186.4C783.467 184.949 782.934 183.2 782.934 181.152C782.934 178.976 783.424 177.013 784.406 175.264C785.387 173.515 786.859 172.128 788.822 171.104C790.827 170.037 793.323 169.504 796.31 169.504C797.846 169.504 799.168 169.675 800.278 170.016C801.43 170.315 802.347 170.613 803.03 170.912C803.371 171.04 803.648 171.253 803.862 171.552C804.118 171.851 804.288 172.171 804.374 172.512C804.63 173.408 804.907 174.432 805.206 175.584C805.504 176.736 805.654 177.824 805.654 178.848C805.654 179.317 805.334 179.552 804.694 179.552C804.31 179.552 803.926 179.467 803.542 179.296C803.2 179.125 802.987 178.912 802.902 178.656C802.006 176.395 800.96 174.667 799.766 173.472C798.571 172.277 797.056 171.68 795.222 171.68C793.942 171.68 792.747 171.915 791.638 172.384C790.528 172.853 789.611 173.621 788.886 174.688C788.203 175.755 787.862 177.184 787.862 178.976C787.862 180.256 788.267 181.429 789.078 182.496C789.931 183.52 791.04 184.501 792.406 185.44C793.771 186.379 795.243 187.339 796.822 188.32C798.315 189.216 799.766 190.197 801.174 191.264C802.624 192.331 803.798 193.611 804.694 195.104C805.632 196.555 806.102 198.347 806.102 200.48C806.102 202.997 805.526 205.216 804.374 207.136C803.222 209.013 801.6 210.464 799.51 211.488C797.419 212.512 794.966 213.024 792.15 213.024ZM811.66 212.192C811.276 212.192 810.956 212.128 810.7 212C810.486 211.915 810.38 211.744 810.38 211.488C810.38 211.147 810.529 210.912 810.828 210.784C811.169 210.656 811.51 210.549 811.852 210.464C812.748 210.251 813.43 209.995 813.9 209.696C814.369 209.355 814.604 208.8 814.604 208.032V194.144C814.604 192.992 814.39 191.968 813.964 191.072C813.58 190.176 812.833 189.643 811.724 189.472C811.51 189.429 811.34 189.344 811.212 189.216C811.126 189.088 811.084 188.896 811.084 188.64C811.084 188.171 811.276 187.915 811.66 187.872C813.366 187.488 814.774 186.976 815.884 186.336C816.993 185.653 817.825 185.099 818.38 184.672C818.764 184.373 819.062 184.224 819.276 184.224C819.532 184.224 819.66 184.331 819.66 184.544C819.66 184.885 819.596 185.568 819.468 186.592C819.382 187.573 819.297 188.683 819.212 189.92C819.126 191.115 819.084 192.203 819.084 193.184V208.032C819.084 208.757 819.318 209.291 819.788 209.632C820.3 209.973 820.982 210.251 821.836 210.464C822.177 210.549 822.497 210.656 822.796 210.784C823.137 210.912 823.308 211.147 823.308 211.488C823.308 211.957 822.881 212.192 822.028 212.192C821.217 212.192 820.556 212.149 820.044 212.064C819.574 212.021 819.105 211.979 818.636 211.936C818.209 211.893 817.612 211.872 816.844 211.872C816.118 211.872 815.521 211.893 815.052 211.936C814.582 211.979 814.113 212.021 813.644 212.064C813.174 212.149 812.513 212.192 811.66 212.192ZM816.78 178.976C815.884 178.976 815.116 178.677 814.476 178.08C813.878 177.44 813.58 176.672 813.58 175.776C813.58 174.837 813.878 174.069 814.476 173.472C815.116 172.832 815.884 172.512 816.78 172.512C817.718 172.512 818.486 172.832 819.084 173.472C819.724 174.069 820.044 174.837 820.044 175.776C820.044 176.672 819.724 177.44 819.084 178.08C818.486 178.677 817.718 178.976 816.78 178.976ZM837.011 230.56C833.385 230.56 830.505 229.856 828.371 228.448C826.281 227.083 825.235 225.227 825.235 222.88C825.235 221.771 825.406 220.832 825.747 220.064C826.089 219.296 826.622 218.635 827.347 218.08C827.945 217.568 828.734 216.907 829.715 216.096C830.739 215.328 831.785 214.517 832.851 213.664L835.539 213.792C833.491 215.115 832.062 216.373 831.251 217.568C830.441 218.763 830.035 220.213 830.035 221.92C830.035 223.627 830.782 225.056 832.275 226.208C833.811 227.403 835.689 228 837.907 228C840.425 228 842.451 227.424 843.987 226.272C845.054 225.461 845.886 224.395 846.483 223.072C847.081 221.792 847.379 220.427 847.379 218.976C847.379 218.037 847.038 217.248 846.355 216.608C845.715 216.011 844.691 215.52 843.283 215.136C841.875 214.752 840.041 214.496 837.779 214.368C833.769 214.069 830.974 213.536 829.395 212.768C827.859 212 827.091 210.805 827.091 209.184C827.091 208.757 827.198 208.373 827.411 208.032C827.667 207.648 828.051 207.243 828.563 206.816C829.545 206.048 830.27 205.493 830.739 205.152C831.209 204.768 831.55 204.448 831.763 204.192C832.019 203.936 832.254 203.616 832.467 203.232L834.643 204.32C833.705 204.661 832.915 205.131 832.275 205.728C831.635 206.283 831.315 206.795 831.315 207.264C831.315 207.861 831.635 208.395 832.275 208.864C832.915 209.291 833.854 209.632 835.091 209.888C836.329 210.144 837.843 210.336 839.635 210.464C843.561 210.677 846.483 211.317 848.403 212.384C850.323 213.451 851.283 214.965 851.283 216.928C851.283 218.592 850.857 220.213 850.003 221.792C849.193 223.413 848.105 224.885 846.739 226.208C845.374 227.531 843.838 228.576 842.131 229.344C840.467 230.155 838.761 230.56 837.011 230.56ZM837.779 202.976C839.401 202.976 840.745 202.165 841.811 200.544C842.878 198.88 843.411 196.832 843.411 194.4C843.411 193.163 843.113 192.011 842.515 190.944C841.961 189.835 841.214 188.96 840.275 188.32C839.379 187.637 838.398 187.296 837.331 187.296C836.35 187.296 835.411 187.659 834.515 188.384C833.662 189.067 832.958 189.963 832.403 191.072C831.891 192.181 831.635 193.397 831.635 194.72C831.635 196.213 831.913 197.6 832.467 198.88C833.022 200.117 833.769 201.12 834.707 201.888C835.646 202.613 836.67 202.976 837.779 202.976ZM837.395 205.216C835.646 205.216 833.982 204.768 832.403 203.872C830.825 202.976 829.523 201.803 828.499 200.352C827.518 198.859 827.027 197.237 827.027 195.488C827.027 193.483 827.539 191.733 828.563 190.24C829.63 188.704 831.017 187.509 832.723 186.656C834.43 185.803 836.243 185.376 838.163 185.376C839.401 185.376 840.467 185.547 841.363 185.888C842.302 186.187 843.219 186.464 844.115 186.72C845.139 187.019 845.95 187.211 846.547 187.296C847.145 187.339 847.763 187.36 848.403 187.36C848.915 187.36 849.555 187.339 850.323 187.296C851.091 187.211 851.625 187.168 851.923 187.168C852.478 187.168 852.755 187.488 852.755 188.128C852.755 188.512 852.542 188.917 852.115 189.344C851.902 189.557 851.731 189.664 851.603 189.664H849.875C848.723 189.664 848.083 189.835 847.955 190.176C847.913 190.347 847.849 190.603 847.763 190.944C847.721 191.243 847.678 191.584 847.635 191.968C847.593 192.352 847.571 192.736 847.571 193.12C847.571 195.296 847.102 197.301 846.163 199.136C845.225 200.971 843.987 202.443 842.451 203.552C840.915 204.661 839.23 205.216 837.395 205.216ZM855.16 212.192C854.776 212.192 854.456 212.128 854.2 212C853.986 211.915 853.88 211.744 853.88 211.488C853.88 211.147 854.008 210.933 854.264 210.848C854.52 210.72 854.882 210.592 855.352 210.464C855.992 210.293 856.61 210.059 857.208 209.76C857.805 209.461 858.104 208.885 858.104 208.032V194.272C858.104 193.12 857.976 192.139 857.72 191.328C857.506 190.517 856.845 189.963 855.736 189.664C855.565 189.579 855.416 189.493 855.288 189.408C855.16 189.28 855.096 189.088 855.096 188.832C855.096 188.363 855.288 188.107 855.672 188.064C857.165 187.68 858.381 187.211 859.32 186.656C860.258 186.101 861.176 185.483 862.072 184.8C862.2 184.715 862.306 184.651 862.392 184.608C862.52 184.523 862.648 184.48 862.776 184.48C862.861 184.48 862.925 184.523 862.968 184.608C863.053 184.693 863.096 184.8 863.096 184.928C863.096 185.227 863.032 185.845 862.904 186.784C862.818 187.68 862.776 188.427 862.776 189.024C862.776 189.195 862.776 189.365 862.776 189.536C862.818 189.664 862.861 189.749 862.904 189.792C864.397 188.384 865.976 187.317 867.64 186.592C869.346 185.867 871.202 185.504 873.208 185.504C875.298 185.504 877.026 186.357 878.392 188.064C879.757 189.771 880.44 191.883 880.44 194.4V208.032C880.44 208.885 880.738 209.461 881.336 209.76C881.933 210.016 882.552 210.251 883.192 210.464C883.533 210.592 883.853 210.741 884.152 210.912C884.493 211.04 884.664 211.275 884.664 211.616C884.664 211.872 884.514 212.021 884.216 212.064C883.917 212.149 883.64 212.192 883.384 212.192C882.53 212.192 881.869 212.149 881.4 212.064C880.93 212.021 880.482 211.979 880.056 211.936C879.629 211.893 879.032 211.872 878.264 211.872C877.538 211.872 876.941 211.893 876.472 211.936C876.002 211.979 875.512 212.021 875 212.064C874.53 212.149 873.869 212.192 873.016 212.192C872.802 212.192 872.525 212.149 872.184 212.064C871.885 212.021 871.736 211.872 871.736 211.616C871.736 211.275 871.885 211.04 872.184 210.912C872.525 210.741 872.866 210.592 873.208 210.464C873.848 210.251 874.466 210.016 875.064 209.76C875.661 209.461 875.96 208.885 875.96 208.032V194.592C875.96 192.715 875.426 191.264 874.36 190.24C873.336 189.173 871.949 188.619 870.2 188.576C868.664 188.576 867.32 188.832 866.168 189.344C865.016 189.813 863.992 190.411 863.096 191.136C862.925 191.307 862.797 191.541 862.712 191.84C862.626 192.096 862.584 192.352 862.584 192.608V208.032C862.584 208.885 862.882 209.461 863.48 209.76C864.077 210.059 864.696 210.293 865.336 210.464C866.317 210.72 866.808 211.061 866.808 211.488C866.808 211.744 866.701 211.915 866.488 212C866.274 212.128 865.954 212.192 865.528 212.192C864.674 212.192 863.992 212.149 863.48 212.064C863.01 212.021 862.562 211.979 862.136 211.936C861.709 211.893 861.112 211.872 860.344 211.872C859.618 211.872 859.021 211.893 858.552 211.936C858.125 211.979 857.656 212.021 857.144 212.064C856.674 212.149 856.013 212.192 855.16 212.192ZM922.393 213.216C922.094 213.216 921.945 213.045 921.945 212.704C921.945 212.277 921.987 211.659 922.073 210.848C922.201 209.995 922.265 209.291 922.265 208.736C922.265 208.651 922.265 208.587 922.265 208.544C922.265 208.459 922.265 208.395 922.265 208.352C920.601 209.973 918.915 211.147 917.209 211.872C915.545 212.555 913.71 212.896 911.705 212.896C910.339 212.896 909.102 212.597 907.993 212C906.883 211.445 906.009 210.613 905.369 209.504C904.729 208.352 904.409 206.944 904.409 205.28V192.288C904.409 191.349 904.195 190.603 903.769 190.048C903.342 189.493 902.638 189.024 901.657 188.64C901.443 188.555 901.251 188.448 901.081 188.32C900.91 188.192 900.825 187.957 900.825 187.616C900.825 187.232 900.91 186.976 901.081 186.848C901.294 186.72 901.529 186.635 901.785 186.592C903.235 186.507 904.345 186.4 905.113 186.272C905.923 186.101 906.926 185.867 908.121 185.568C908.249 185.525 908.334 185.504 908.377 185.504C908.462 185.504 908.547 185.504 908.633 185.504C909.102 185.504 909.315 185.803 909.273 186.4C909.145 187.381 909.038 188.213 908.953 188.896C908.91 189.536 908.889 190.347 908.889 191.328V203.808C908.889 204.832 909.145 205.792 909.657 206.688C910.169 207.541 910.83 208.245 911.641 208.8C912.494 209.355 913.369 209.632 914.265 209.632C915.374 209.632 916.334 209.568 917.145 209.44C917.998 209.312 918.83 208.949 919.641 208.352C920.11 208.011 920.707 207.456 921.433 206.688C922.158 205.92 922.521 204.875 922.521 203.552V191.84C922.521 190.944 922.243 190.283 921.689 189.856C921.177 189.387 920.579 189.067 919.897 188.896C919.214 188.725 918.659 188.64 918.233 188.64C917.849 188.64 917.529 188.576 917.273 188.448C917.017 188.277 916.889 187.979 916.889 187.552C916.889 187.168 917.017 186.912 917.273 186.784C917.571 186.656 917.891 186.592 918.233 186.592C919.555 186.549 920.643 186.507 921.497 186.464C922.393 186.379 923.182 186.272 923.865 186.144C924.59 185.973 925.337 185.781 926.105 185.568C926.19 185.525 926.297 185.504 926.425 185.504C926.553 185.461 926.659 185.44 926.745 185.44C927.299 185.44 927.577 185.675 927.577 186.144C927.577 186.187 927.555 186.272 927.513 186.4C927.513 186.485 927.491 186.592 927.449 186.72C927.406 186.848 927.342 187.211 927.257 187.808C927.214 188.405 927.15 189.024 927.065 189.664C927.022 190.304 927.001 190.795 927.001 191.136V205.92C927.001 207.072 927.107 207.904 927.321 208.416C927.577 208.885 927.854 209.12 928.153 209.12C928.494 209.12 928.985 209.099 929.625 209.056C930.307 208.971 930.798 208.928 931.097 208.928C931.31 208.928 931.523 208.971 931.737 209.056C931.95 209.141 932.057 209.376 932.057 209.76C932.057 210.101 931.971 210.336 931.801 210.464C931.63 210.549 931.417 210.613 931.161 210.656C929.497 210.869 928.067 211.189 926.873 211.616C925.678 212.043 924.611 212.448 923.673 212.832C923.545 212.875 923.353 212.939 923.097 213.024C922.841 213.152 922.606 213.216 922.393 213.216ZM935.279 230.24C935.065 230.24 934.788 230.197 934.447 230.112C934.105 230.069 933.935 229.92 933.935 229.664C933.935 229.323 934.084 229.067 934.383 228.896C934.724 228.768 935.065 228.64 935.407 228.512C936.047 228.299 936.665 228.043 937.263 227.744C937.86 227.488 938.159 226.933 938.159 226.08V193.632C938.159 193.291 938.052 192.779 937.839 192.096C937.668 191.413 937.369 190.752 936.943 190.112C936.516 189.472 935.94 189.088 935.215 188.96C935.044 188.917 934.916 188.811 934.831 188.64C934.745 188.469 934.703 188.299 934.703 188.128C934.703 187.915 934.745 187.744 934.831 187.616C934.916 187.488 935.023 187.403 935.151 187.36C936.772 186.976 938.159 186.571 939.311 186.144C940.463 185.675 941.551 185.227 942.575 184.8C942.617 184.8 942.639 184.8 942.639 184.8C942.639 184.757 942.66 184.736 942.703 184.736C942.788 184.736 942.873 184.8 942.959 184.928C943.044 185.056 943.087 185.184 943.087 185.312C943.087 185.696 943.023 186.315 942.895 187.168C942.809 187.979 942.767 188.64 942.767 189.152C942.767 189.493 942.788 189.685 942.831 189.728C943.257 189.301 944.025 188.768 945.135 188.128C946.287 187.445 947.588 186.848 949.039 186.336C950.489 185.781 951.876 185.504 953.199 185.504C955.417 185.504 957.295 186.101 958.831 187.296C960.409 188.448 961.604 189.963 962.415 191.84C963.268 193.675 963.695 195.595 963.695 197.6C963.695 199.52 963.332 201.397 962.607 203.232C961.881 205.024 960.857 206.645 959.535 208.096C958.212 209.547 956.676 210.72 954.927 211.616C953.177 212.469 951.3 212.896 949.295 212.896C948.697 212.896 947.972 212.789 947.119 212.576C946.308 212.405 945.497 212.171 944.687 211.872C943.919 211.573 943.321 211.232 942.895 210.848C942.852 210.848 942.809 211.104 942.767 211.616C942.724 212.085 942.681 212.576 942.639 213.088C942.639 213.643 942.639 213.984 942.639 214.112V226.08C942.639 226.635 942.852 227.061 943.279 227.36C943.748 227.701 944.26 227.936 944.815 228.064C945.412 228.235 945.924 228.384 946.351 228.512C946.692 228.64 947.012 228.768 947.311 228.896C947.652 229.067 947.823 229.323 947.823 229.664C947.823 229.92 947.652 230.069 947.311 230.112C946.969 230.197 946.671 230.24 946.415 230.24C945.177 230.24 944.132 230.176 943.279 230.048C942.468 229.963 941.508 229.92 940.399 229.92C939.673 229.92 939.076 229.941 938.607 229.984C938.18 230.027 937.732 230.069 937.263 230.112C936.793 230.197 936.132 230.24 935.279 230.24ZM950.255 210.912C950.895 210.912 951.663 210.72 952.559 210.336C953.497 209.952 954.415 209.333 955.311 208.48C956.249 207.627 957.017 206.475 957.615 205.024C958.255 203.573 958.575 201.781 958.575 199.648C958.575 197.173 958.255 195.189 957.615 193.696C956.975 192.203 956.185 191.072 955.247 190.304C954.308 189.536 953.348 189.024 952.367 188.768C951.385 188.512 950.553 188.384 949.871 188.384C948.847 188.384 947.78 188.597 946.671 189.024C945.604 189.451 944.687 189.941 943.919 190.496C943.193 191.008 942.831 191.413 942.831 191.712C942.831 192.651 942.809 193.611 942.767 194.592C942.767 195.531 942.745 196.448 942.703 197.344C942.703 198.24 942.681 199.051 942.639 199.776C942.639 200.459 942.639 200.992 942.639 201.376C942.639 203.083 943.023 204.661 943.791 206.112C944.601 207.563 945.583 208.736 946.735 209.632C947.929 210.485 949.103 210.912 950.255 210.912Z" fill="black"/>
<defs>
<filter id="filter0_i_111_204" x="696" y="873" width="355" height="107" filterUnits="userSpaceOnUse" color-interpolation-filters="sRGB">
<feFlood flood-opacity="0" result="BackgroundImageFix"/>
<feBlend mode="normal" in="SourceGraphic" in2="BackgroundImageFix" result="shape"/>
<feColorMatrix in="SourceAlpha" type="matrix" values="0 0 0 0 0 0 0 0 0 0 0 0 0 0 0 0 0 0 127 0" result="hardAlpha"/>
<feOffset dy="4"/>
<feGaussianBlur stdDeviation="2"/>
<feComposite in2="hardAlpha" operator="arithmetic" k2="-1" k3="1"/>
<feColorMatrix type="matrix" values="0 0 0 0 0 0 0 0 0 0 0 0 0 0 0 0 0 0 0.25 0"/>
<feBlend mode="normal" in2="shape" result="effect1_innerShadow_111_204"/>
</filter>
<filter id="filter1_d_111_204" x="692" y="873" width="363" height="111" filterUnits="userSpaceOnUse" color-interpolation-filters="sRGB">
<feFlood flood-opacity="0" result="BackgroundImageFix"/>
<feColorMatrix in="SourceAlpha" type="matrix" values="0 0 0 0 0 0 0 0 0 0 0 0 0 0 0 0 0 0 127 0" result="hardAlpha"/>
<feOffset dy="4"/>
<feGaussianBlur stdDeviation="2"/>
<feComposite in2="hardAlpha" operator="out"/>
<feColorMatrix type="matrix" values="0 0 0 0 0 0 0 0 0 0 0 0 0 0 0 0 0 0 0.25 0"/>
<feBlend mode="normal" in2="BackgroundImageFix" result="effect1_dropShadow_111_204"/>
<feBlend mode="normal" in="SourceGraphic" in2="effect1_dropShadow_111_204" result="shape"/>
</filter>
</defs>
</svg>
