<svg xmlns="http://www.w3.org/2000/svg" viewBox="0 0 125.19 142.92">
  <defs>
    <style>
      .cls-1 {
        fill: #232422;
      }

      .cls-2 {
        fill: #292928;
      }

      .cls-3 {
        fill: #d3c9bc;
      }
    </style>
  </defs>
  <g id="图层_2" data-name="图层 2">
    <g id="图层_1-2" data-name="图层 1">
      <g>
        <path class="cls-1" d="M124.59,35.62c1.48,22.94-.26,45.6-.3,68.28,0,9.68.32,19.37.49,29,0,1.68,0,3.36.06,5,0,2.68-1.27,4.18-4,4.42-2.21.2-4.43.53-6.65.52q-34.38-.07-68.75-.26c-7.82,0-15.63-.38-23.44-.49-2.61,0-5.21.24-7.82.31-3.76.11-7.53.22-11.29.18a2.13,2.13,0,0,1-1.5-1.32,20.82,20.82,0,0,1-.86-4.88c-.25-8.37-.4-16.75-.56-25.12-.1-5.16.55-6.11,5.6-7.25a44.5,44.5,0,0,1,7.18-.92c8.55-.48,17.11-.84,25.66-1.3,3.56-.19,3.51-.35,3.47-4,0-3.88.12-7.76.35-11.64.22-3.71.67-7.4.95-11.11.35-4.69,1.38-6,6.08-6.07,5.76-.14,11.53.11,17.3.21,3.54.07,7.09,0,10.61.34,2.41.22,3.52-1,4-3a61.2,61.2,0,0,0,1.08-7.16c.7-5.9,1.16-11.84,2.06-17.71.54-3.57,1.6-4.46,5-4.74,5.56-.48,11.14-.86,16.72-1,5.16-.11,10.34.91,15.45-.79C122.37,35,123.57,35.49,124.59,35.62ZM4.69,140.17c4.87-2.73,9.37-2,13.83-1.95q40.26.24,80.53.33c6,0,11.92-.22,17.88-.3,1.45,0,2.54-.31,2.67-2.05.37-4.61,1.14-9.23,1.13-13.84-.07-25.72-.35-51.45-.44-77.17,0-2.33-.62-3.52-2.94-3.67-1.11-.08-2.21-.23-3.32-.24-6.89,0-13.79,0-20.69-.08-5.2-.06-5.08-.1-5.69,5-.91,7.57-1.9,15.13-3.09,22.66-.66,4.16-1.82,5-5.91,5.14-1.3,0-2.61,0-3.91,0-8-.12-16-.19-24-.41-2.33-.06-3.49.75-3.62,3.09q-.22,4.18-.53,8.35c-.36,5.2-.54,10.41-1.18,15.57s-1.74,5.79-7,5.9c-3.91.08-7.83,0-11.74.16-5.58.24-11.16.54-16.73,1-4.24.36-5.32,1.45-5.33,4.8C4.67,121.36,4.69,130.29,4.69,140.17Z" transform="translate(0 0)"/>
        <path class="cls-2" d="M71.14,19.72c-3.49,4.5-6.47,8.3-9.4,12.14C49.45,48,32.51,57.38,14.31,65a63.59,63.59,0,0,1-6.85,2.35c-1.24.35-3,1.94-3.76-.32-.93-2.6,1.75-2.33,3-2.9,2.35-1.07,4.93-1.64,7.3-2.67C27.2,55.72,39.82,48.9,50.32,39c5.5-5.22,10.21-11.33,14.94-17.31,2.56-3.23,2-4-1.78-5.32-.17-.06-.34-.16-.51-.23-1.77-.73-4.88-.18-4.78-2.72.05-1.29,2.68-2.65,4.33-3.68,4.41-2.76,8.91-5.37,13.39-8a13.58,13.58,0,0,1,3-1.5c2-.58,3.36.34,3.24,2.5Q81.44,13.82,80.43,25a3.47,3.47,0,0,1-1.69,2.56c-.68.22-2-.65-2.66-1.38C74.41,24.21,73,22.1,71.14,19.72ZM77.76,5,65.65,12.52c5.13,0,7.58,3.84,10.83,6.82C76.9,14.65,77.27,10.43,77.76,5Z" transform="translate(0 0)"/>
        <path class="cls-3" d="M77.76,5c-.49,5.47-.86,9.69-1.28,14.38-3.25-3-5.7-6.85-10.83-6.82Z" transform="translate(0 0)"/>
      </g>
    </g>
  </g>
</svg>
