<svg xmlns="http://www.w3.org/2000/svg" viewBox="0 0 287.17 264.34">
  <defs>
    <style>
      .cls-1 {
        fill: #171716;
      }

      .cls-2 {
        fill: #d17557;
      }
    </style>
  </defs>
  <g id="图层_2" data-name="图层 2">
    <g id="图层_1-2" data-name="图层 1">
      <g>
        <path class="cls-1" d="M61.57,180c-.16.64-.32,1.29-.47,1.94a4.44,4.44,0,0,1-2.21,2.89,2.81,2.81,0,0,1-4.22-1.59,13.16,13.16,0,0,1-.39-3.44c0-1.51.07-3,.11-4.54a3.61,3.61,0,0,0,.19-.64c.65-4.65,1.26-9.3,1.93-13.95.43-3,.94-5.91,1.41-8.87,1-4,2-8,3-12a3.59,3.59,0,0,0,0-1.46c-.59-3.1-3-4-5.6-2.19a14.69,14.69,0,0,0-5.34,8A114.49,114.49,0,0,0,46,164.4c-.74,6.43-1.38,12.87-2.13,19.3a6.23,6.23,0,0,1-.92,2.62c-.9,1.35-2.38,1.24-3.79,1.05A2.46,2.46,0,0,1,37,185.23a20.43,20.43,0,0,1-.48-3.46,72.06,72.06,0,0,1,.94-14.52c.82-4.91,1.72-9.8,2.57-14.71a11.21,11.21,0,0,0-.55-5.71c-.84-2.4-2.43-2.85-4.46-1.32a11.64,11.64,0,0,0-3.36,4.32,51.3,51.3,0,0,0-4.31,14.39c-.95,5.8-.81,11.66-1.08,17.49a48.51,48.51,0,0,1-1.62,12,7.39,7.39,0,0,1-.52,1.38,2.75,2.75,0,0,1-2.45,1.63A2.61,2.61,0,0,1,19,195a18.11,18.11,0,0,1-.84-3.93A66.62,66.62,0,0,1,19,172.52a84.91,84.91,0,0,1,5.42-19.67c1.77-4.11,3.85-8.06,7.34-11,2.09-1.77,4.5-2.8,7.35-2a5.92,5.92,0,0,1,3.34,2.57c.64,1,.65,1,1.15,0a28.77,28.77,0,0,1,5.64-8,14.21,14.21,0,0,1,7.73-4.09c2.16-.36,4.14-.19,5.63,1.66.55.68.87.64,1.48-.07a50.43,50.43,0,0,1,5.25-5.58,8.68,8.68,0,0,1,9-1.55c2.1.76,3.41,2.55,4.55,4.42a11.75,11.75,0,0,1,1.52,6.22l3.77-4.71.59-.51h0A18.82,18.82,0,0,1,98.9,128a6.38,6.38,0,0,1,6.32,4.72c.23.67.44,1.35.66,2,1,5.88,0,11.57-1.51,17.23a82.83,82.83,0,0,0-2.56,14.42,90.27,90.27,0,0,0-.43,19.37c.22,2,.61,4,2.31,5.28a14.2,14.2,0,0,0,11,3.32,10.85,10.85,0,0,0,7.4-4c3-3.92,4.39-8.51,5.12-13.29.43-2.88.51-5.81.71-8.72.24-3.73.44-7.45.65-11.17.2-.87.38-1.74.58-2.6,1.16-5,3.32-9.33,8.07-11.89a9.54,9.54,0,0,1,6.26-1.05c3.86.83,6.38,3.29,8.09,6.72,1.36,2.74,1.46,5.73,1.54,8.69a89.08,89.08,0,0,1-1.66,18.37c-1.82,10-3.8,20-5.7,30a26.67,26.67,0,0,0,.38,12.4,112.63,112.63,0,0,0,5.46,14.76c4.29,9.76,11.66,16.1,21.6,19.61a62.86,62.86,0,0,0,16.3,3.4,56.9,56.9,0,0,0,10.36,0,42.87,42.87,0,0,0,18.47-6.68c4.93-3.13,9.61-6.64,14.38-10a22.86,22.86,0,0,0,2.89-2.4c1.25-1.22,2.36-2.6,3.6-3.83,4.78-4.76,9.7-9.38,14.36-14.26a21.81,21.81,0,0,0,6.15-12.62,35.14,35.14,0,0,0-.42-11.26,39,39,0,0,0-7.41-16.86,6.24,6.24,0,0,0-2.22-2.07c-2.78-1.14-5.65-2.06-8.49-3-4.81-1.66-9.85-2-14.86-2.41a30.66,30.66,0,0,1-17.21-6.59A34.28,34.28,0,0,1,201,155c-4.57-7.61-5.74-15.83-4.47-24.53.51-3.51.94-7,1.11-10.57a9.29,9.29,0,0,0-1.52-6.3l-3.23-4.31c-1.19-1.51-2.33-3.07-3.58-4.53a15.65,15.65,0,0,1-3.87-8.59c-.21-2.05-.11-4.13-.15-6.2.56-5.08,1.94-9.9,5.29-13.88,2.6-3.09,5.42-6,8.14-9,1.55-1.92,3.17-3.8,4.65-5.77a22.16,22.16,0,0,0,4.06-11.55,50.84,50.84,0,0,1,10.08-26.35c6.7-8.8,15.18-15.53,25.85-19.13a43.93,43.93,0,0,1,11-2.05,8.5,8.5,0,0,1,2.91.4A2.77,2.77,0,0,1,258.82,7a7,7,0,0,1-4,3,71.38,71.38,0,0,1-8.6,2.1c-5.3.89-10.49,2-15.25,4.65-6.25,3.45-10.42,8.7-13.19,15.17-2.37,5.51-3.73,11.33-5.15,17.13-1.14,4.67-2.11,9.44-4.55,13.62-2.2,3.8-4.91,7.3-7.32,11-1.69,2.58-3.25,5.24-4.88,7.87a27.8,27.8,0,0,0-2.74,8.07c-.08,1.18-.22,2.36-.23,3.53a6.79,6.79,0,0,0,1.59,4.52,24.63,24.63,0,0,1,2.16,2.66c1.06,1.72,2,3.52,3,5.29l2.45,6.45c.53,1.71,1,3.43,1.62,5.12,1.77,5.08,1.85,10.32,1.51,15.6a43.22,43.22,0,0,0,.36,10.35,16.92,16.92,0,0,0,6.09,10.5c2.69,2.16,5.6,4.05,8.48,6,2.31,1.55,5,1.82,7.71,2.17,5,.65,10,1.2,15,1.92a16,16,0,0,1,7.47,3.18,86.68,86.68,0,0,1,10.77,9.39,29.47,29.47,0,0,1,7.44,15,44.81,44.81,0,0,1-2.11,24.66,33.35,33.35,0,0,1-6.25,10.63,157.4,157.4,0,0,1-26.67,24.52A77.28,77.28,0,0,1,212.21,262a49.86,49.86,0,0,1-17.93,2.26,76.66,76.66,0,0,1-18.92-3.35c-6.8-2.16-13.1-5.24-18.16-10.45a11,11,0,0,1-2.81-4.07,2.44,2.44,0,0,0-1.07-1.31c-3.24-1.6-5-4.46-6.42-7.54a49.72,49.72,0,0,1-4-13.94,160.37,160.37,0,0,1-1.73-21.77,109.83,109.83,0,0,1,1.3-17.74c1-7.06,2.11-14.13,2.94-21.22a29.73,29.73,0,0,0-1-11.63c-1-3.5-2.83-4.08-5.74-1.87a9.28,9.28,0,0,0-3.4,4.72,73.21,73.21,0,0,0-2.69,14c-.6,5.67-.56,11.42-1.91,17a73.87,73.87,0,0,1-2.51,7.94c-.72,1.95-2.39,3.24-3.85,4.63-5.11,4.85-11.13,5-17.51,3.37a13.89,13.89,0,0,1-6.76-4.23c-1.43-1.56-2.82-3.15-4.24-4.71-2.23-2.44-2.79-5.41-2.94-8.59-.28-6,1.21-11.65,3.09-17.27,1.68-5,3.48-10,4.8-15.12a26.45,26.45,0,0,0-.23-14.65c-.74-2.41-1.67-2.87-4.14-2a9,9,0,0,0-4.7,3.88A47.88,47.88,0,0,0,86,152.17a135.72,135.72,0,0,0-3.91,20.61,51.18,51.18,0,0,1-1.25,6.2,4.62,4.62,0,0,1-1.82,2.89c-2,1.44-4.34.59-4.81-1.85-.11-.61-.11-1.25-.16-1.88a103.89,103.89,0,0,1,2.31-14.46c1.67-7.8,3.84-15.52,4-23.56a52.4,52.4,0,0,0-.41-5.44c0-1.46-.92-2.49-1.67-3.57-1.91-2.75-4.53-2.16-6.17-.78a12.8,12.8,0,0,0-2.83,3.35c-2.79,4.92-3.3,10.43-3.86,15.91-.29,3-.56,6.06-.89,9.08-.39,3.47-.8,6.93-1.29,10.38C62.78,172.72,62.15,176.38,61.57,180Z"/>
        <path class="cls-2" d="M137.26,142.74c-4.75,2.56-6.91,6.89-8.07,11.89-.2.86-.38,1.73-.58,2.6-4.47,3.6-9.46,4.11-14.81,2.51-4-1.21-7.32-3.32-9.09-7.34a1.42,1.42,0,0,0-.34-.4c1.52-5.66,2.54-11.35,1.51-17.23.79-.84,1.54-1.73,2.39-2.51.67-.59,1.48-1,2.2-1.56,1.12-.84,1.13-.86.38-2a24.89,24.89,0,0,1-3.37-7.46c-.29-1.17-.79-2.29-1.1-3.46-.55-2.13-2.24-3-4-3.87a2.78,2.78,0,0,0-1.32-.1,4.73,4.73,0,0,0-4,3.08,57.22,57.22,0,0,1-7.9,12.19,5.37,5.37,0,0,0-.52,1.14h0l-.59.51-3.77,4.71a11.75,11.75,0,0,0-1.52-6.22c1-1.78,2-3.53,2.89-5.32,1.41-2.71,2.75-5.46,4.2-8.15a4.91,4.91,0,0,0,.65-3c-.3-2.62-.52-5.18-1.92-7.61a13.15,13.15,0,0,1-1.16-10c.52-2,.23-3.07-1.68-4.37-12.4-8.4-25.16-16.22-38.2-23.6-5.47-3.1-11-6.13-16.43-9.28a8.88,8.88,0,0,0-7.4-.7,13.55,13.55,0,0,0-1.67.54c-3.72,1.69-7.45,1.37-11.15,0-5.58-2-9.43-5.71-10.65-11.68C-1.3,38.41,3.79,28.36,14.4,28.29a18.45,18.45,0,0,1,6.36,1,12.42,12.42,0,0,1,8.45,10.14,21.8,21.8,0,0,1,.28,5.35,6,6,0,0,0,2.82,6c3.75,2.4,7.54,4.72,11.3,7.1,4.63,2.94,9.31,5.8,13.84,8.89a66.57,66.57,0,0,0,12.68,6.5c3.87,1.56,7.72,3.19,11.42,5.1,2.25,1.16,4.18,3,6.3,4.38a24.12,24.12,0,0,0,3.05,1.64A.71.71,0,0,0,92,83.8a.42.42,0,0,1,0-.12c1.3-1.85.68-3.48-.2-5.36C89.74,73.8,87.91,69.16,86,64.56A243.61,243.61,0,0,0,74.84,41.07c-1.27-2.32-2.25-4.8-3.53-7.12a18.27,18.27,0,0,0-2.82-3.74,4.1,4.1,0,0,0-2.38-1,18.16,18.16,0,0,1-7-2.28c-2.85-1.52-4.22-4.18-5.07-7.17A16.49,16.49,0,0,1,55.91,5.87,12.06,12.06,0,0,1,66.66,0a15.76,15.76,0,0,1,12,4.78,8.8,8.8,0,0,1,2.61,6.73c-.18,2.81-.72,5.6-1.16,8.39a6.86,6.86,0,0,1-2.34,3.71,3.43,3.43,0,0,0-1.07,2.89A11.86,11.86,0,0,0,78.42,32a44.7,44.7,0,0,1,2.94,6.63c2,5.2,3.8,10.47,5.79,15.67a48.31,48.31,0,0,0,7.74,13.67,31.29,31.29,0,0,1,4.67,7.85c.62,1.44,1.41,2.81,2.14,4.2a3,3,0,0,0,2.46,1.64,21.93,21.93,0,0,1,7.9,2.54,9.36,9.36,0,0,1,4.62,5.56c.27.89.67.88,1.38.64,3-1,6-2.19,9.06-3.07,7.33-2.12,14.74-4,22-6.22,4-1.22,7.79-3,11.67-4.51,2.12-.84,4.22-1.74,6.36-2.53a1.21,1.21,0,0,0,.91-1.14c.18-1.33.47-2.65.73-4,1.3-6.76,5.69-10.59,12.09-12.11,6.1-1.46,11.33.64,15.74,4.92a5.69,5.69,0,0,1,1.72,3.72,12.64,12.64,0,0,0,.37,1.68c-2.72,3-5.54,5.89-8.14,9-3.35,4-4.73,8.8-5.29,13.88-5,.67-10.1,1.11-15.07,2-7.54,1.42-15,3.21-22.51,4.81a107.35,107.35,0,0,1-25.52,2.8,6.61,6.61,0,0,0-6.25,4,18.26,18.26,0,0,1-2.33,3.75,5.91,5.91,0,0,0-1.38,4.88,12.28,12.28,0,0,0,.67,3q1.93,4.88,4.06,9.68a5.83,5.83,0,0,0,3.79,3.41,34.33,34.33,0,0,1,9,4.25c3.55,2.23,7.18,1.89,10.74-.07,1.06-.59,2-1.41,3.07-1.94a24.9,24.9,0,0,1,5-2.13,34.78,34.78,0,0,0,7.6-2.66c3.09-1.57,6.08-3.34,9.23-4.74,6.28-2.77,12.65-5.35,19-8,2.85-1.2,5.68-2.46,8.51-3.7l3.23,4.31a8.89,8.89,0,0,0-1,.23c-3.52,1.34-7.07,2.6-10.54,4.06-8.41,3.54-16.32,8.06-24.36,12.36-6.63,3.54-13,7.69-20.2,10.06A4.27,4.27,0,0,0,137.26,142.74ZM142.9,91c3.38-.42,6.68-.81,10-1.23,4.55-.57,9.08-1.27,13.64-1.7A84.59,84.59,0,0,0,179.68,86a2.12,2.12,0,0,0,.75-.28c.37-.25.51-.63-.07-.74-2.29-.41-4-1.91-6-3a6.35,6.35,0,0,0-4.13-1c-4,.66-8.08,1.24-12.08,2.06-5.11,1-9.75,3.35-14.29,5.84a5.66,5.66,0,0,0-1.33,1.12,2.32,2.32,0,0,0-.33.82Z"/>
        <path class="cls-2" d="M202.07,112.07l-2.45-6.45c2.17-1.19,4.28-2.48,6.51-3.53,4.54-2.14,9.19-4.08,13.73-6.22,7.33-3.45,14.54-7.15,22.19-9.85a30.84,30.84,0,0,0,3.62-1.74c.5-.25,1-.7.67-1.26-.18-.32-.76-.43-1.18-.59a1.52,1.52,0,0,0-.67,0c-2,.3-4,.57-6,.92-5.78,1-11.55,2.16-17.35,3.06-6.29,1-12.61,1.82-18.93,2.59-3,.36-6.06.42-9.09.61a27.8,27.8,0,0,1,2.74-8.07c1.31.92,2.7.33,4.05.22a10.36,10.36,0,0,1,1.74-.17c5.28.52,10.51-.12,15.71-.8,9.35-1.22,18.66-2.67,28-4,1.46-.2,3-.28,4.43-.35a4.56,4.56,0,0,0,4.38-2.8,17.59,17.59,0,0,0,1.2-3.42c1-4.75,4.17-7.53,8.3-9.4,3.61-1.63,7.39-1.37,11.11-.47a30.18,30.18,0,0,1,5.74,1.9c4.74,2.21,7,6.42,6.57,11.9a18.84,18.84,0,0,1-12.23,15.59c-5.66,1.84-10.71.58-15.22-3.13a1.79,1.79,0,0,0-2-.23c-2.47.93-4.92,1.93-7.42,2.79-3.06,1.06-6.19,1.9-9.22,3-5.13,1.88-9.76,4.75-14.4,7.58-4.45,2.72-8.9,5.44-13.42,8A38.32,38.32,0,0,1,202.07,112.07Z"/>
        <path class="cls-2" d="M61.57,180c.58-3.66,1.21-7.32,1.73-11,.49-3.45.9-6.91,1.29-10.38.33-3,.6-6,.89-9.08a7.59,7.59,0,0,0,4.41-2.39,60.55,60.55,0,0,0,7.24-8.82c.93-1.26,1.92-2.47,2.88-3.7a52.4,52.4,0,0,1,.41,5.44c-.18,8-2.35,15.76-4,23.56a103.89,103.89,0,0,0-2.31,14.46A20.13,20.13,0,0,1,67,180.5,14,14,0,0,1,61.57,180Z"/>
        <path class="cls-2" d="M57.92,151.84c-.47,3-1,5.91-1.41,8.87-.67,4.65-1.28,9.3-1.93,13.95a3.61,3.61,0,0,1-.19.64,13.08,13.08,0,0,1-3.17-10.84,20.07,20.07,0,0,1,5.22-11.27C56.89,152.7,57.42,152.29,57.92,151.84Z"/>
      </g>
    </g>
  </g>
</svg>
